<svg id="Layer_8" data-name="Layer 8" xmlns="http://www.w3.org/2000/svg" xmlns:xlink="http://www.w3.org/1999/xlink" viewBox="0 0 34.69 31.68"><defs><style>.cls-1{fill:none;}.cls-2{clip-path:url(#clip-path);}</style><clipPath id="clip-path" transform="translate(-10.65 -12.63)"><rect class="cls-1" x="10.65" y="12.63" width="34.69" height="31.68"/></clipPath></defs><title>bathroom</title><g class="cls-2"><path d="M38.21,42.8H17.79a3.22,3.22,0,0,1-3.09-2.33L12.19,31.7a.75.75,0,0,1,.73-1H43.08a.75.75,0,0,1,.73,1L41.3,40.47a3.22,3.22,0,0,1-3.09,2.33M13.92,32.24l2.23,7.82a1.72,1.72,0,0,0,1.64,1.23H38.21a1.72,1.72,0,0,0,1.64-1.23l2.23-7.82Z" transform="translate(-10.65 -12.63)"/><path d="M19.7,44.31a.75.75,0,0,1-.33-1.43l3-1.51a.77.77,0,0,1,1,.34.76.76,0,0,1-.34,1l-3,1.51a.81.81,0,0,1-.34.08" transform="translate(-10.65 -12.63)"/><path d="M37.05,44.31a.84.84,0,0,1-.34-.08l-3-1.51a.74.74,0,0,1-.34-1,.76.76,0,0,1,1-.34l3,1.51a.75.75,0,0,1,.33,1,.73.73,0,0,1-.67.42" transform="translate(-10.65 -12.63)"/><path d="M20.46,20.18H15.93a.76.76,0,0,1-.75-.76V17.91a3,3,0,0,1,6,0v1.51a.76.76,0,0,1-.75.76m-3.77-1.51h3v-.76a1.51,1.51,0,0,0-3,0Z" transform="translate(-10.65 -12.63)"/><path d="M13.67,29.23a.75.75,0,0,1-.75-.76V15.65a3,3,0,1,1,6,0,.76.76,0,1,1-1.51,0,1.51,1.51,0,1,0-3,0V28.47a.76.76,0,0,1-.76.76" transform="translate(-10.65 -12.63)"/><path d="M16.69,24.7a.76.76,0,0,1-.76-.75V21.68a.76.76,0,0,1,1.51,0V24a.76.76,0,0,1-.75.75" transform="translate(-10.65 -12.63)"/><path d="M19,26.21a.75.75,0,0,1-.75-.75V23.19a.75.75,0,0,1,1.5,0v2.27a.75.75,0,0,1-.75.75" transform="translate(-10.65 -12.63)"/><path d="M40.42,29.23H23.88a.75.75,0,0,1-.65-.38,3.77,3.77,0,0,1,3.26-5.66,3.82,3.82,0,0,1,1.87.5,5.31,5.31,0,0,1,3.41-1.25,4.56,4.56,0,0,1,.9.08A5.28,5.28,0,1,1,41,29a.73.73,0,0,1-.56.25M24.36,27.72H40.07a3.77,3.77,0,1,0-6.37-4,.75.75,0,0,1-.88.38A3.7,3.7,0,0,0,31.77,24,3.79,3.79,0,0,0,29,25.17a.75.75,0,0,1-1,.07A2.26,2.26,0,0,0,24.23,27a2.17,2.17,0,0,0,.13.76" transform="translate(-10.65 -12.63)"/><path d="M44.59,32.24H11.41a.75.75,0,0,1-.76-.75v-3a.76.76,0,0,1,.76-.75H44.59a.76.76,0,0,1,.76.75v3a.75.75,0,0,1-.76.75M12.16,30.73H43.84v-1.5H12.16Z" transform="translate(-10.65 -12.63)"/><path d="M37.05,35.26H14.43a.76.76,0,1,1,0-1.51H37.05a.76.76,0,0,1,0,1.51" transform="translate(-10.65 -12.63)"/></g></svg>