<svg id="Layer_8" data-name="Layer 8" xmlns="http://www.w3.org/2000/svg" viewBox="0 0 27.8 40.83"><title>bathroom</title><path d="M19.81,26.74h2.61a.87.87,0,1,0,0-1.74H20.68V10.94H35V25H31.11a.87.87,0,1,0,0,1.74h4.78a.86.86,0,0,0,.86-.87V10.07a.86.86,0,0,0-.86-.87H19.81a.86.86,0,0,0-.86.87V25.86a.87.87,0,0,0,.86.88Z" transform="translate(-13.73 -9.2)"/><path d="M29.58,21.63l4.78-5.26a.87.87,0,0,0,0-1.23l0,0a.86.86,0,0,0-1.22.06L28.3,20.44a.87.87,0,0,0,0,1.23h0A.87.87,0,0,0,29.58,21.63Z" transform="translate(-13.73 -9.2)"/><path d="M32.16,14.2a.87.87,0,0,0,0-1.23h0a.87.87,0,0,0-1.23,0l-3.47,3.48a.86.86,0,0,0,0,1.22v0a.88.88,0,0,0,1.22,0Z" transform="translate(-13.73 -9.2)"/><path d="M31.11,44.72a.87.87,0,0,0,.87-.87V42.12a.87.87,0,0,0-1.74,0v1.73A.87.87,0,0,0,31.11,44.72Z" transform="translate(-13.73 -9.2)"/><path d="M14.6,50H40.66a.87.87,0,0,0,.87-.87V33.32a.86.86,0,0,0-.87-.86H35a4.47,4.47,0,0,0,.87-2.61V29a.87.87,0,0,0-.87-.87h-6.3V25A2.62,2.62,0,0,0,28,23.1,2.21,2.21,0,0,0,24.9,23l-.06.06A2.61,2.61,0,0,0,24.16,25a.87.87,0,0,0,1.74,0,.84.84,0,0,1,.19-.61.48.48,0,0,1,.68,0h0A.84.84,0,0,1,27,25v3.07H19.81a.86.86,0,0,0-.86.87v.87a4.34,4.34,0,0,0,.86,2.6H14.6a1,1,0,0,0-.62.26.9.9,0,0,0-.25.62V49.11a.87.87,0,0,0,.82.92Zm25.2-1.74H28.5V37.71H39.8V48.29ZM34.15,29.87a2.61,2.61,0,0,1-2.61,2.61H23.29a2.61,2.61,0,0,1-2.61-2.61ZM15.47,34.22H39.8V36H15.47Zm0,3.47H26.76V48.23H15.47V37.69Z" transform="translate(-13.73 -9.2)"/><path d="M24.16,41.21a.87.87,0,0,0-.87.87v1.74a.87.87,0,1,0,1.74,0V42.08A.87.87,0,0,0,24.16,41.21Z" transform="translate(-13.73 -9.2)"/></svg>