<svg id="Layer_6" data-name="Layer 6" xmlns="http://www.w3.org/2000/svg" viewBox="0 0 38.86 40.22"><title>bedroom</title><path d="M46.51,36.81a.52.52,0,0,0-.52-.53h-.84V26.93a5.07,5.07,0,0,0-5.06-5.06h-26A5.07,5.07,0,0,0,9,26.93v9.35H8.17a.52.52,0,0,0-.52.53v6.37a.52.52,0,0,0,.52.52h2.77v2.82h-2v1H45.05v-1H43.22V43.7H46a.52.52,0,0,0,.52-.52V36.81ZM10.05,26.93a4,4,0,0,1,4-4h26a4,4,0,0,1,4,4v9.35H42.64v-.86c0-2-2.24-3.63-5-3.63h-.1l.92-.92a1,1,0,0,0,0-1.45l-4.29-4.29a1,1,0,0,0-1.45,0l-4.29,4.29a1,1,0,0,0,0,1.45l.92.92H24.69l1-1a1,1,0,0,0,0-1.45L21.42,25a1,1,0,0,0-.73-.3h0A1,1,0,0,0,20,25l-4.29,4.29a1,1,0,0,0,0,1.45l1,1h-.2c-2.74,0-5,1.63-5,3.63v.86H10.05Zm13.58,5.91h14c2.13,0,3.93,1.18,3.93,2.58v.86h-29v-.86c0-1.4,1.8-2.58,3.93-2.58Zm-5.45-1.05L16.43,30l4.26-4.26L25,30l-1.74,1.75Zm12.67,0-1.64-1.64,4.26-4.26,4.26,4.26-1.64,1.64ZM13.55,46.52H12V43.7h1.57Zm26,0h-25V43.7h25v2.82Zm2.62,0H40.61V43.7h1.57Zm3.29-3.86H8.69V41.4H45.47v1.26Zm0-2.3H8.69v-3H45.47v3Z" transform="translate(-7.65 -7.35)"/><rect x="23.8" y="11.77" width="1.49" height="1.04" transform="translate(-6.02 20.05) rotate(-60)"/><path d="M18,18h3.73l.09.05,0-.05H36.16a.52.52,0,0,0,.52-.52V7.87a.52.52,0,0,0-.52-.52H18a.52.52,0,0,0-.52.52v9.61A.52.52,0,0,0,18,18Zm.52-9.61H29.77L28,11.45l.91.53L31,8.39h4.66V17H30.3l2.95-5.11-.91-.52L29.09,17H22.45l1.86-3.23-.9-.52L21.24,17H18.52Z" transform="translate(-7.65 -7.35)"/></svg>