<?xml version="1.0" encoding="utf-8"?>
<!-- Generator: Adobe Illustrator 22.1.0, SVG Export Plug-In . SVG Version: 6.00 Build 0)  -->
<svg version="1.1" id="Laag_1" xmlns="http://www.w3.org/2000/svg" xmlns:xlink="http://www.w3.org/1999/xlink" x="0px" y="0px"
	 viewBox="0 0 100 96.5" style="enable-background:new 0 0 100 96.5;" xml:space="preserve">
<g>
	<path d="M61.3,14C61.3,14,61.3,14.1,61.3,14c-0.1,0.2-0.2,0.2-0.1,0.2C61.2,14.2,61.3,14.1,61.3,14C61.3,14.1,61.3,14,61.3,14z"/>
	<path d="M73.5,17.3C73.5,17.3,73.5,17.4,73.5,17.3c-0.1,0.2-0.2,0.2-0.1,0.2C73.4,17.5,73.4,17.4,73.5,17.3
		C73.5,17.4,73.5,17.3,73.5,17.3z"/>
	<path d="M49.2,17.3C49.1,17.3,49.1,17.4,49.2,17.3C49,17.5,49,17.5,49,17.5C49,17.5,49.1,17.4,49.2,17.3
		C49.1,17.4,49.1,17.3,49.2,17.3z"/>
	<path d="M88,41c-1.4-1.1-3.1-1.6-4.9-1.8c0-0.7,0-1.4,0-2.1c0-1.1-1-1.7-1.9-1.5c-0.4,0.1-0.9,0.2-1.3,0.2
		c-0.8-0.6-1.6-1.1-2.5-1.6c-2.3-1.3-4.9-2.2-7.5-2.7c-2.1-0.4-4.2-0.6-6.4-0.6c-5.4,0-11.1,1.3-15.5,4.3c-0.3,0.2-0.6,0.4-0.8,0.6
		c-0.5-0.1-0.9-0.1-1.4-0.2c-1-0.2-1.9,0.4-1.9,1.5c0,3.8,0,7.5,0,11.3c-1.5-0.6-3-1-4.6-1.3c-2.4-0.5-5-0.5-7.5-0.3
		c-0.4,0-0.8,0.3-1,0.6c-0.2,0.2-0.3,0.5-0.3,0.8c-5.5,0.9-10.7,3.6-14.6,7.5c-0.2,0.2-0.4,0.4-0.5,0.6c-0.1,0.2-0.1,0.3-0.1,0.5
		c0,0.3,0,0.6,0.2,0.9c0,0,0,0,0,0c-2.9,3-5.7,6.2-6.7,10.2c0,0.1,0,0.1,0,0.2c-0.7,2.3,0,4.9,2,6.4c2.1,1.6,5,1.5,7,0
		c0,0,0,0,0.1,0c0.7-0.5,1.4-1,2.1-1.5c0.7-0.5,1.3-0.8,2.1-1.3c0.7-0.4,1.6-0.8,2.3-0.9c0,0,0.3-0.1,0.3-0.1c0.1,0,0.2,0,0.3-0.1
		c0.2,0,0.4-0.1,0.6-0.1c0,0,0,0.1,0,0.1c0,0.3,0.2,0.7,0.5,0.9c0.2,0.2,0.5,0.3,0.8,0.4c0.7,0,1.4,0.1,2.2,0.2
		c0.3,0.1,0.6,0.1,0.9,0.2c0,0,0.3,0.1,0.3,0.1c0.1,0,0.3,0.1,0.4,0.1c0.6,0.2,1.2,0.4,1.7,0.6c0.3,0.1,0.6,0.2,0.8,0.4
		c0.1,0.1,0.3,0.1,0.4,0.2c0.1,0,0.1,0.1,0.1,0.1c0,0,0.1,0.1,0.1,0.1c0.8,0.5,1.5,1,2.2,1.5c0.1,0.1,0.1,0.1,0.2,0.2c0,0,0,0,0,0
		c1,0.8,1.8,1.8,2.6,2.9c0,0.1,0.1,0.1,0.1,0.2l0,0c0.3,0.5,1,0.6,1.6,0.5c0,0,0,0,0,0c0.1,0.7,0.2,1.4,0.3,2.2c0,0,0,0.2,0,0.2
		c0,0.1,0,0.2,0,0.4c0,0.3,0,0.5,0,0.8c0,0.6,0,1.2-0.1,1.7c-0.1,1.2-0.2,2.5-0.5,3.5c0,0.1-0.1,0.3-0.1,0.4c0,0,0,0,0,0
		c-0.4,2.2,0.6,4.5,2.6,5.7c2.2,1.3,4.9,1.3,6.9-0.2c0,0,0.1,0,0.1-0.1c4.4-3,6.9-7.6,8.5-12.5c0.1,0,0.1,0.1,0.2,0.1c0,0,0,0,0,0
		c0.2,0.2,0.4,0.2,0.7,0.3c0.2,0,0.4,0,0.6-0.1c0.3-0.1,0.5-0.2,0.7-0.5c0.1-0.2,0.2-0.4,0.2-0.6c0,0,0-0.1,0-0.1
		c1-4.3,0.8-8.8-0.4-13c1.6,0.1,3.3,0.1,4.9,0.1c7.3,0,13.8-4.6,16.4-11.3c3.5-0.2,7.3-2,8.8-5.3C92.4,47.2,91,43.3,88,41z
		 M16.2,72.1c-0.1,0-0.1,0.1-0.2,0.1c-0.1,0.1-0.2,0.1-0.2,0.2c-0.1,0-0.1,0.1-0.1,0.1c0,0,0,0,0,0c-0.2,0.1-0.4,0.2-0.6,0.2
		c0,0,0,0-0.1,0c0,0-0.1,0-0.1,0c-0.1,0-0.2,0-0.3,0.1c-0.1,0-0.2,0-0.3,0c0,0-0.1,0-0.1,0c-0.2,0-0.4,0-0.7-0.1c0,0,0,0,0,0
		c-0.1,0-0.2-0.1-0.2-0.1c-0.2-0.1-0.3-0.1-0.5-0.2c0.1,0-0.3-0.2-0.3-0.2c-0.1-0.1-0.1-0.1-0.2-0.2c0,0,0,0,0,0
		c-0.1-0.1-0.3-0.3-0.4-0.4c0-0.1-0.1-0.1-0.1-0.2c0,0,0,0,0-0.1c-0.1-0.2-0.2-0.4-0.2-0.5c0,0,0,0,0,0c0-0.1,0-0.2-0.1-0.2
		c0-0.2-0.1-0.3-0.1-0.5c0,0,0-0.3,0-0.4c0,0,0-0.2,0-0.3c0,0,0.1-0.3,0.1-0.3c0-0.1,0.1-0.2,0.1-0.4c0.3-1,0.6-1.9,1.1-2.8
		c0.2-0.3,0.4-0.7,0.7-1.2c0.3-0.5,0.6-0.9,1-1.4c1.2-1.5,2.4-2.8,3.7-4.1c0.3,0.2,0.6,0.4,1,0.6c0.5,0.3,0.9,0.7,1.4,1
		c0.2,0.2,0.5,0.4,0.7,0.6c0.1,0.1,0.3,0.3,0.3,0.3c0.1,0.1,0.2,0.2,0.3,0.3c0.5,0.5,0.9,1,1.4,1.6c0.2,0.3,0.4,0.6,0.6,0.9
		c0.1,0.1,0.1,0.2,0.2,0.3c0.1,0.2,0.2,0.4,0.3,0.5c0.2,0.4,0.4,0.8,0.5,1.2c0.1,0.2,0.2,0.5,0.2,0.7c0,0.1,0,0.2,0.1,0.2
		c0,0,0,0,0,0.1c0,0,0,0.1,0,0.1c0,0,0,0.1,0,0.1C21.8,68.2,18.9,70.2,16.2,72.1z M23.7,64.5C23.8,64.7,23.8,64.6,23.7,64.5
		L23.7,64.5z M31.9,63.8c-0.1,2-0.3,3.9-0.7,5.8c-0.9-0.3-1.8-0.4-2.8-0.6c-0.4-3.1-1.8-6.1-3.9-8.5c-1.5-1.7-3.2-3-5.1-4.1
		c0.5-0.4,1-0.8,1.6-1.2c1.2-0.9,2.1-1.4,3.5-2.1c0.6-0.3,1.3-0.6,2-0.9c0.3-0.1,0.7-0.2,1-0.4c0.1,0,0.3-0.1,0.4-0.1
		c0.1,0,0.2,0,0.2-0.1c-0.1,0,0,0,0.1,0c1-0.3,1.9-0.5,2.9-0.6c0.1,0.6,0.2,1.3,0.3,1.9c0.2,1.7,0.4,3.3,0.5,5
		c0.1,1.1,0.1,1.8,0.1,2.7C32,61.7,31.9,62.8,31.9,63.8z M52.9,36.4c0,0,0.1,0,0.1-0.1c0.3-0.1,0.5-0.2,0.8-0.3
		c1.3-0.5,2.7-0.9,4-1.1c0.4-0.1,0.8-0.2,1.3-0.2c0.1,0,0.2,0,0.3,0c0.1,0,0.1,0,0.1,0c0,0,0,0,0.1,0c0.2,0,0.4-0.1,0.6-0.1
		c1.1-0.1,2.1-0.2,3.2-0.2c0.9,0,1.9,0,2.8,0.1c0.9,0.1,1.2,0.1,2.2,0.3c1.4,0.3,2.8,0.6,4.2,1.1c0.3,0.1,0.6,0.2,0.8,0.3
		c0.1,0.1,0.3,0.1,0.4,0.2c0,0,0,0,0,0c0,0,0,0,0.1,0c0.1,0.1,0.3,0.1,0.4,0.2c-7,0.7-14,0.7-21,0.1c-0.2,0-0.4,0-0.7-0.1
		C52.7,36.5,52.8,36.4,52.9,36.4z M37.3,71.7c-0.1,0.2-0.3,0.4-0.4,0.6c-0.9-0.6-1.9-1.2-2.9-1.7c0.8-4,1.1-8.1,0.9-12.2
		c-0.1-3-0.5-6-1.1-8.9c0,0,0,0,0,0c1.5,0,3,0.1,4.5,0.3c0.4,0.1,0.8,0.2,1.2,0.2c0.1,0,0.2,0,0.3,0.1c0,0,0,0,0,0c0,0,0,0,0,0
		c0.2,0.1,0.5,0.1,0.7,0.2c0.9,0.3,1.8,0.6,2.6,0.9c0.8,0.3,1.7,0.7,2.5,1.1c0.9,0.4,1.4,0.7,2.3,1.3c1.6,1,3,2.1,4.4,3.3
		c0.2,0.2,0.4,0.3,0.6,0.5c0,0,0.1,0.1,0.2,0.1c0.1,0.1,0.1,0.1,0.2,0.2c0.3,0.3,0.7,0.7,1,1.1c0,0,0.1,0.1,0.1,0.1
		c-3.5,0.7-6.7,2.5-9.5,4.7C42.1,66.1,39.5,68.8,37.3,71.7z M41,79.1C41,79.1,41,79.1,41,79.1C41,79.1,41,79.1,41,79.1
		C41.1,79,41.1,79,41,79.1C41.3,79,41.4,79,41,79.1z M55.2,81c-0.5,1.4-1.1,2.8-1.8,4.2c-0.6,1.1-1.4,2.3-2.3,3.5
		c-0.9,1.1-1.8,1.9-3.1,2.8c-0.1,0-0.1,0.1-0.2,0.1c-0.4,0.3-0.4,0.3-0.9,0.5c0,0-0.1,0-0.1,0c-0.1,0-0.2,0-0.3,0.1
		c-0.1,0-0.2,0-0.3,0c0,0-0.1,0-0.1,0c-0.2,0-0.4,0-0.6,0c-0.1,0-0.2,0-0.2,0c0,0,0,0,0,0c-0.2-0.1-0.3-0.1-0.5-0.2c0,0-0.1,0-0.1,0
		c-0.1,0-0.2-0.1-0.2-0.1c-0.1-0.1-0.3-0.2-0.4-0.3c0,0,0,0,0,0c-0.1-0.1-0.1-0.1-0.2-0.2s-0.1-0.1-0.2-0.2c0,0-0.1-0.1-0.1-0.1
		c0,0-0.1-0.1-0.1-0.1c0-0.1-0.1-0.2-0.1-0.2s-0.1-0.2-0.1-0.2c0,0,0-0.1,0-0.1c0-0.1,0-0.1,0-0.1c0-0.1,0-0.2,0-0.3
		c0-0.1,0-0.2,0-0.3c0,0,0,0,0,0c0-0.2,0-0.4,0.1-0.7c0,0,0-0.1,0-0.1c0.6-2.5,0.8-5.1,0.6-7.7c0-0.8-0.1-1.6-0.3-2.4
		c0.1,0,0.3-0.1,0.4-0.1c0.6-0.1,1.2-0.1,1.9-0.2c0.2,0,0.3,0,0.5,0c0,0,0,0,0,0c0,0,0,0,0,0c0,0,0,0,0.1,0c0,0,0.1,0,0.1,0
		c0,0,0.1,0,0.1,0c0.4,0,0.7,0,1.1,0c0.8,0,1.6,0.1,2.3,0.2c0.4,0.1,0.8,0.1,1.2,0.2c0.2,0,0.5,0.1,0.7,0.1c0.1,0,0.2,0,0.3,0.1
		c0.1,0,0.1,0,0.1,0c0,0,0.1,0,0.1,0c1.1,0.3,2.1,0.6,3.1,1.1C55.5,80.3,55.4,80.7,55.2,81z M58.3,78c-5.3-2.6-11.4-3.4-17.1-2
		c-0.2,0-0.3,0.1-0.5,0.1c-0.5-0.7-1.1-1.3-1.6-1.9C40,73,41,71.8,42,70.6c0.3-0.3,0.6-0.7,0.9-1c0.1-0.1,0.1-0.1,0.2-0.2
		c0,0,0,0,0,0c0,0,0,0,0,0c0.2-0.2,0.3-0.4,0.5-0.5c0.7-0.7,1.4-1.4,2.2-2c0.8-0.7,1.6-1.3,2.5-1.9c0.2-0.1,0.4-0.3,0.6-0.4
		c0.1-0.1,0.2-0.1,0.3-0.2c0.1,0,0.1-0.1,0.2-0.1c0,0,0,0,0,0c0.5-0.3,0.9-0.5,1.4-0.8c0.5-0.3,1.1-0.5,1.6-0.7
		c0.3-0.1,0.5-0.2,0.8-0.3c0.1,0,0.3-0.1,0.4-0.1c0,0,0,0,0,0c0.1,0,0.1,0,0.2,0c0.4-0.1,0.7-0.2,1.1-0.3c0.1,0.1,0.1,0.2,0.1,0.2
		c0.2,0.3,0.4,0.7,0.6,1.1c0.4,0.7,0.7,1.4,1,2.1c0.3,0.8,0.6,1.6,0.9,2.4c0,0.1,0,0.1,0,0.1c0,0,0,0,0,0.1c0.1,0.2,0.1,0.4,0.2,0.6
		c0.1,0.4,0.2,0.8,0.3,1.2c0.3,1.6,0.5,3.3,0.5,4.8C58.6,75.7,58.5,76.9,58.3,78z M80,48c0,0.6,0,1.2,0,1.7c0,0.4,0,0.9,0,1.3
		c0,0.2,0,0.4-0.1,0.6c0,0.1,0,0.2,0,0.2c0,0,0,0.1,0,0.1c-0.1,0.4-0.1,0.8-0.2,1.2c-0.4,1.7-0.9,2.8-1.8,4.3
		c-0.2,0.3-0.4,0.6-0.6,0.9c0,0-0.2,0.3-0.2,0.3c-0.1,0.2-0.3,0.4-0.4,0.5c-0.5,0.6-1.1,1.1-1.6,1.7c-0.2,0.1-0.3,0.3-0.5,0.4
		c0,0,0,0-0.1,0.1c-0.1,0.1-0.2,0.1-0.3,0.2c-0.3,0.2-0.7,0.5-1.1,0.7c-0.4,0.2-0.8,0.5-1.2,0.7c-0.2,0.1-0.4,0.2-0.6,0.3
		c0,0,0,0,0,0c0,0,0,0,0,0c-0.1,0-0.2,0.1-0.4,0.1c-1.9,0.7-3.4,1-5.3,1c-1,0-2.1,0-3.1,0c-0.4,0-0.9,0-1.3,0
		c-0.7,0-1.2-0.1-1.7-0.1c-0.1-0.2-0.2-0.4-0.3-0.6c-0.3-0.7-0.7-1.4-1.1-2.1c0,0,0,0,0.1,0c0.1-0.1,0.1-0.1,0.2-0.2
		c0.2-0.2,0.3-0.5,0.4-0.8c0-0.2,0-0.4-0.1-0.6c-0.1-0.2-0.1-0.3-0.2-0.5c-2.1-3.1-5-5.7-8.2-7.7c-1.1-0.7-2.2-1.4-3.4-1.9
		c0,0,0-0.1,0-0.1c0-2.1,0-4.2,0-6.2c0-1.5,0-3,0-4.5c8.9,1.4,18,1.7,27,0.8c2.1-0.2,4.2-0.5,6.2-0.8C80,41.9,80,44.9,80,48z
		 M88,48.2c0,0.1-0.1,0.3-0.1,0.3c0,0.2-0.1,0.3-0.2,0.5c0,0,0,0.1-0.1,0.1c0,0,0,0,0,0.1c-0.1,0.1-0.1,0.3-0.2,0.4
		c-0.1,0.1-0.2,0.3-0.2,0.4c0,0.1-0.1,0.1-0.1,0.2c0,0,0,0-0.1,0.1c-0.2,0.2-0.5,0.5-0.7,0.7c0,0-0.2,0.2-0.2,0.2
		c-0.1,0-0.1,0.1-0.1,0.1c-0.1,0.1-0.2,0.1-0.3,0.2c-0.3,0.2-0.7,0.4-1.1,0.6c-0.1,0-0.1,0.1-0.2,0.1c0,0,0,0-0.1,0
		c-0.2,0.1-0.4,0.2-0.6,0.2c-0.3,0.1-0.6,0.2-0.9,0.2c0.2-1.2,0.2-2.4,0.2-3.7c0-2.1,0-4.2,0-6.3c0.1,0,0.2,0,0.2,0
		c0.2,0,0.4,0.1,0.6,0.2c0.2,0,0.3,0.1,0.5,0.1c0.1,0,0.4,0.1,0.3,0.1c0.3,0.1,0.6,0.3,0.9,0.5c0.1,0.1,0.3,0.2,0.4,0.2
		c0,0,0,0,0.1,0c0,0,0.1,0.1,0.1,0.1c0.3,0.2,0.5,0.5,0.7,0.7c0,0,0.1,0.2,0.2,0.2c0.1,0.1,0.2,0.3,0.2,0.3c0.1,0.1,0.2,0.2,0.2,0.4
		c0,0.1,0.2,0.4,0.2,0.4c0.1,0.2,0.2,0.5,0.2,0.7c0,0.1,0.1,0.3,0.1,0.4c0,0.1,0,0.2,0,0.2c0,0.2,0,0.3,0,0.5
		C88,47.9,88,48.1,88,48.2z"/>
	<path d="M62.1,41.7c-4.2-0.1-8.3-0.4-12.5-1c-0.8-0.1-1.7,0.2-1.9,1.1c-0.2,0.7,0.2,1.8,1.1,1.9c4.4,0.6,8.8,1,13.3,1.1
		c0.8,0,1.5-0.7,1.5-1.5C63.7,42.4,63,41.7,62.1,41.7z"/>
	<path d="M58.8,46.5c-3.1-0.2-6.1-0.4-9.1-0.9c-0.8-0.1-1.7,0.2-1.9,1.1c-0.2,0.7,0.2,1.8,1.1,1.9c3.3,0.5,6.6,0.8,10,1
		c0.8,0,1.5-0.7,1.5-1.5C60.3,47.2,59.6,46.6,58.8,46.5z"/>
	<path d="M62.3,28.7c0.7,0.6,1.7,0.7,2.4,0c0.6-0.6,0.7-1.8,0-2.4c-0.1-0.1-0.3-0.3-0.4-0.4c-0.1-0.1-0.2-0.3-0.4-0.4c0,0,0,0,0,0
		c-0.1-0.1-0.2-0.3-0.3-0.4c-0.2-0.3-0.3-0.5-0.5-0.8c-0.1-0.2-0.2-0.3-0.2-0.5c0,0,0,0,0,0c0-0.1-0.1-0.2-0.1-0.4
		c-0.1-0.4-0.3-0.8-0.3-1.2c0-0.2-0.1-0.4-0.1-0.6c0-0.1,0-0.3,0-0.5c0-0.5,0-1,0-1.4c0,0,0,0,0-0.1c0-0.1,0-0.2,0-0.2
		c0-0.2,0.1-0.5,0.2-0.7c0-0.1,0.3-0.6,0.1-0.2c0.1-0.1,0.1-0.3,0.2-0.4c0.2-0.3,0.4-0.6,0.6-0.9c0,0,0.1-0.2,0.2-0.3
		c0.1-0.1,0.1-0.2,0.1-0.2c0.3-0.4,0.6-0.7,0.8-1.1c0.5-0.6,0.8-1.3,1.1-2.1c0.8-2.3,0.4-5-0.4-7.2C64.8,5.4,64,4.8,63,5.1
		c-0.8,0.2-1.6,1.3-1.2,2.1c0.2,0.5,0.4,1,0.5,1.5c0.2,0.6,0.2,1,0.3,1.6c0,0.3,0,0.5,0,0.8c0,0.1,0,0.5,0,0.5
		c-0.1,0.4-0.2,0.7-0.3,1.1c0,0.1-0.1,0.1-0.1,0.2c-0.1,0.1-0.2,0.3-0.2,0.4c-0.2,0.3-0.4,0.6-0.6,0.9c0,0,0,0,0-0.1
		c0,0,0,0.1-0.1,0.1c0,0-0.1,0.1-0.1,0.1c-0.1,0.1-0.2,0.2-0.3,0.4c-0.3,0.4-0.6,0.7-0.8,1.1c-2.1,3.2-1.5,7.6,0.3,10.7
		C60.9,27.2,61.5,28.1,62.3,28.7z"/>
	<path d="M74.4,32c0.7,0.6,1.7,0.7,2.4,0c0.6-0.6,0.7-1.8,0-2.4c-0.1-0.1-0.3-0.3-0.4-0.4c-0.1-0.1-0.2-0.3-0.4-0.4c0,0,0,0,0,0
		c-0.1-0.1-0.2-0.3-0.3-0.4c-0.2-0.3-0.3-0.5-0.5-0.8c-0.1-0.2-0.2-0.3-0.2-0.5c0,0,0,0,0,0c0-0.1-0.1-0.2-0.1-0.4
		c-0.1-0.4-0.3-0.8-0.3-1.2c0-0.2-0.1-0.4-0.1-0.6c0-0.1,0-0.3,0-0.5c0-0.5,0-1,0-1.4c0,0,0,0,0-0.1c0-0.1,0-0.2,0-0.2
		c0-0.2,0.1-0.5,0.2-0.7c0-0.1,0.3-0.6,0.1-0.2c0.1-0.1,0.1-0.3,0.2-0.4c0.2-0.3,0.4-0.6,0.6-0.9c0,0,0.1-0.2,0.2-0.3
		c0.1-0.1,0.1-0.2,0.1-0.2c0.3-0.4,0.6-0.7,0.8-1.1c0.5-0.6,0.8-1.3,1.1-2.1c0.8-2.3,0.4-5-0.4-7.2c-0.3-0.9-1.2-1.5-2.1-1.2
		c-0.8,0.2-1.6,1.3-1.2,2.1c0.2,0.5,0.4,1,0.5,1.5c0.2,0.6,0.2,1,0.3,1.6c0,0.3,0,0.5,0,0.8c0,0.1,0,0.5,0,0.5
		c-0.1,0.4-0.2,0.7-0.3,1.1c0,0.1-0.1,0.1-0.1,0.2c-0.1,0.1-0.2,0.3-0.2,0.4c-0.2,0.3-0.4,0.6-0.6,0.9c0,0,0,0,0.1-0.1
		c0,0,0,0-0.1,0.1c0,0-0.1,0.1-0.1,0.1c-0.1,0.1-0.2,0.2-0.3,0.4c-0.3,0.4-0.6,0.7-0.8,1.1c-2.1,3.2-1.5,7.6,0.3,10.7
		C73.1,30.5,73.7,31.4,74.4,32z"/>
	<path d="M50.1,32c0.7,0.6,1.7,0.7,2.4,0c0.6-0.6,0.7-1.8,0-2.4c-0.1-0.1-0.3-0.3-0.4-0.4c-0.1-0.1-0.2-0.3-0.4-0.4c0,0,0,0,0,0
		c-0.1-0.1-0.2-0.3-0.3-0.4c-0.2-0.3-0.3-0.5-0.5-0.8c-0.1-0.2-0.2-0.3-0.2-0.5c0,0,0,0,0,0c0-0.1-0.1-0.2-0.1-0.4
		c-0.1-0.4-0.3-0.8-0.3-1.2c0-0.2-0.1-0.4-0.1-0.6c0-0.1,0-0.3,0-0.5c0-0.5,0-1,0-1.4c0,0,0,0,0-0.1c0-0.1,0-0.2,0-0.2
		c0-0.2,0.1-0.5,0.2-0.7c0-0.1,0.3-0.6,0.1-0.2c0.1-0.1,0.1-0.3,0.2-0.4c0.2-0.3,0.4-0.6,0.6-0.9c0,0,0.1-0.2,0.2-0.3
		c0.1-0.1,0.1-0.2,0.1-0.2c0.3-0.4,0.6-0.7,0.8-1.1c0.5-0.6,0.8-1.3,1.1-2.1c0.8-2.3,0.4-5-0.4-7.2c-0.3-0.9-1.2-1.5-2.1-1.2
		c-0.8,0.2-1.6,1.3-1.2,2.1c0.2,0.5,0.4,1,0.5,1.5c0.2,0.6,0.2,1,0.3,1.6c0,0.3,0,0.5,0,0.8c0,0.1,0,0.5,0,0.5
		c-0.1,0.4-0.2,0.7-0.3,1.1c0,0.1-0.1,0.1-0.1,0.2c-0.1,0.1-0.2,0.3-0.2,0.4c-0.2,0.3-0.4,0.6-0.6,0.9c0,0,0,0,0-0.1
		c0,0,0,0-0.1,0.1c0,0-0.1,0.1-0.1,0.1c-0.1,0.1-0.2,0.2-0.3,0.4c-0.3,0.4-0.6,0.7-0.8,1.1c-2.1,3.2-1.5,7.6,0.3,10.7
		C48.7,30.5,49.3,31.4,50.1,32z"/>
	<path d="M23.7,64.5C23.8,64.6,23.8,64.7,23.7,64.5L23.7,64.5z"/>
	<path d="M41,79C41,79.1,41,79.1,41,79C41,79.1,41,79.1,41,79C41.4,79,41.3,79,41,79C41.1,79,41.1,79,41,79z"/>
	<path d="M46.6,78.2C46.6,78.2,46.5,78.2,46.6,78.2c-0.1,0-0.1,0-0.1,0c0,0,0,0,0,0C46.6,78.2,46.6,78.2,46.6,78.2z"/>
</g>
</svg>
