<?xml version="1.0" encoding="utf-8"?>
<!-- Generator: Adobe Illustrator 22.1.0, SVG Export Plug-In . SVG Version: 6.00 Build 0)  -->
<svg version="1.1" id="Laag_1" xmlns="http://www.w3.org/2000/svg" xmlns:xlink="http://www.w3.org/1999/xlink" x="0px" y="0px"
	 viewBox="0 0 64 65.4" style="enable-background:new 0 0 64 65.4;" xml:space="preserve">
<g>
	<g>
		<g>
			<path d="M63,7H1C0.4,7,0,6.6,0,6s0.4-1,1-1h62c0.6,0,1,0.4,1,1S63.6,7,63,7z"/>
		</g>
	</g>
	<g>
		<g>
			<path d="M63,4H1C0.4,4,0,3.6,0,3s0.4-1,1-1h62c0.6,0,1,0.4,1,1S63.6,4,63,4z"/>
		</g>
	</g>
	<g>
		<g>
			<g>
				<path d="M26,30c-0.6,0-1-0.4-1-1V9c0-0.6,0.4-1,1-1s1,0.4,1,1v20C27,29.6,26.6,30,26,30z"/>
			</g>
		</g>
		<g>
			<g>
				<path d="M10,46c-0.6,0-1-0.4-1-1s0.4-1,1-1c8.3,0,15-6.7,15-15c0-0.6,0.4-1,1-1s1,0.4,1,1C27,38.4,19.4,46,10,46z"/>
			</g>
		</g>
		<g>
			<g>
				<path d="M10,46c-0.6,0-1-0.4-1-1s0.4-1,1-1c8.3,0,15-6.7,15-15c0-0.6,0.4-1,1-1s1,0.4,1,1C27,38.4,19.4,46,10,46z"/>
			</g>
		</g>
		<g>
			<g>
				<path d="M2,46c-0.6,0-1-0.4-1-1s0.4-1,1-1c3.9,0,7-3.1,7-7c0-0.6,0.4-1,1-1s1,0.4,1,1C11,42,7,46,2,46z"/>
			</g>
		</g>
		<g>
			<g>
				<path d="M6,46c-0.6,0-1-0.4-1-1s0.4-1,1-1c6.1,0,11-4.9,11-11c0-0.6,0.4-1,1-1s1,0.4,1,1C19,40.2,13.2,46,6,46z"/>
			</g>
		</g>
		<g>
			<g>
				<path d="M18,34c-0.6,0-1-0.4-1-1V9c0-0.6,0.4-1,1-1s1,0.4,1,1v24C19,33.6,18.5,34,18,34z"/>
			</g>
		</g>
		<g>
			<g>
				<path d="M10,38c-0.6,0-1-0.4-1-1V9c0-0.6,0.4-1,1-1s1,0.4,1,1v28C11,37.6,10.5,38,10,38z"/>
			</g>
		</g>
		<g>
			<g>
				<path d="M26,10H2c-0.6,0-1-0.4-1-1s0.4-1,1-1h24c0.6,0,1,0.4,1,1S26.6,10,26,10z"/>
			</g>
		</g>
		<g>
			<g>
				<path d="M2,62c-0.6,0-1-0.4-1-1V9c0-0.6,0.4-1,1-1s1,0.4,1,1v52C3,61.6,2.6,62,2,62z"/>
			</g>
		</g>
		<g>
			<g>
				<path d="M12,46H2c-0.6,0-1-0.4-1-1s0.4-1,1-1h10c0.6,0,1,0.4,1,1S12.6,46,12,46z"/>
			</g>
		</g>
		<g>
			<g>
				<path d="M7,51c-0.6,0-1-0.4-1-1c0-2.2-1.8-4-4-4c-0.6,0-1-0.4-1-1s0.4-1,1-1c3.3,0,6,2.7,6,6C8,50.6,7.5,51,7,51z"/>
			</g>
		</g>
		<g>
			<g>
				<path d="M7,62c-0.6,0-1-0.4-1-1V50c0-0.6,0.4-1,1-1s1,0.4,1,1v11C8,61.6,7.5,62,7,62z"/>
			</g>
		</g>
		<g>
			<g>
				<path d="M12,51c-0.6,0-1-0.4-1-1c0-2.2-1.8-4-4-4c-0.6,0-1-0.4-1-1s0.4-1,1-1c3.3,0,6,2.7,6,6C13,50.6,12.5,51,12,51z"/>
			</g>
		</g>
		<g>
			<g>
				<path d="M12,62c-0.6,0-1-0.4-1-1V50c0-0.6,0.4-1,1-1s1,0.4,1,1v11C13,61.6,12.6,62,12,62z"/>
			</g>
		</g>
		<g>
			<g>
				<path d="M17,51c-0.6,0-1-0.4-1-1c0-2.2-1.8-4-4-4c-0.6,0-1-0.4-1-1s0.4-1,1-1c3.3,0,6,2.7,6,6C18,50.6,17.5,51,17,51z"/>
			</g>
		</g>
		<g>
			<g>
				<path d="M17,62c-0.6,0-1-0.4-1-1V50c0-0.6,0.4-1,1-1s1,0.4,1,1v11C18,61.6,17.6,62,17,62z"/>
			</g>
		</g>
		<g>
			<g>
				<path d="M17,62H2c-0.6,0-1-0.4-1-1s0.4-1,1-1h15c0.6,0,1,0.4,1,1S17.6,62,17,62z"/>
			</g>
		</g>
		<g>
			<g>
				<path d="M2,8C1.4,8,1,7.6,1,7V6c0-0.6,0.4-1,1-1s1,0.4,1,1v1C3,7.6,2.6,8,2,8z"/>
			</g>
		</g>
		<g>
			<g>
				<path d="M10,8C9.4,8,9,7.6,9,7V6c0-0.6,0.4-1,1-1s1,0.4,1,1v1C11,7.6,10.6,8,10,8z"/>
			</g>
		</g>
		<g>
			<g>
				<path d="M18,8c-0.6,0-1-0.4-1-1V6c0-0.6,0.4-1,1-1s1,0.4,1,1v1C19,7.6,18.5,8,18,8z"/>
			</g>
		</g>
		<g>
			<g>
				<path d="M26,8c-0.6,0-1-0.4-1-1V6c0-0.6,0.4-1,1-1s1,0.4,1,1v1C27,7.6,26.5,8,26,8z"/>
			</g>
		</g>
	</g>
	<g>
		<g>
			<g>
				<path d="M38,30c-0.6,0-1-0.4-1-1V9c0-0.6,0.4-1,1-1s1,0.4,1,1v20C39,29.6,38.6,30,38,30z"/>
			</g>
		</g>
		<g>
			<g>
				<path d="M54,46c-9.4,0-17-7.6-17-17c0-0.6,0.4-1,1-1s1,0.4,1,1c0,8.3,6.7,15,15,15c0.6,0,1,0.4,1,1S54.6,46,54,46z"/>
			</g>
		</g>
		<g>
			<g>
				<path d="M54,46c-9.4,0-17-7.6-17-17c0-0.6,0.4-1,1-1s1,0.4,1,1c0,8.3,6.7,15,15,15c0.6,0,1,0.4,1,1S54.6,46,54,46z"/>
			</g>
		</g>
		<g>
			<g>
				<path d="M62,46c-5,0-9-4-9-9c0-0.6,0.4-1,1-1s1,0.4,1,1c0,3.9,3.1,7,7,7c0.6,0,1,0.4,1,1S62.6,46,62,46z"/>
			</g>
		</g>
		<g>
			<g>
				<path d="M58,46c-7.2,0-13-5.8-13-13c0-0.6,0.4-1,1-1s1,0.4,1,1c0,6.1,4.9,11,11,11c0.6,0,1,0.4,1,1S58.6,46,58,46z"/>
			</g>
		</g>
		<g>
			<g>
				<path d="M46,34c-0.6,0-1-0.4-1-1V9c0-0.6,0.4-1,1-1s1,0.4,1,1v24C47,33.6,46.6,34,46,34z"/>
			</g>
		</g>
		<g>
			<g>
				<path d="M54,38c-0.6,0-1-0.4-1-1V9c0-0.6,0.4-1,1-1s1,0.4,1,1v28C55,37.6,54.6,38,54,38z"/>
			</g>
		</g>
		<g>
			<g>
				<path d="M62,10H38c-0.6,0-1-0.4-1-1s0.4-1,1-1h24c0.6,0,1,0.4,1,1S62.5,10,62,10z"/>
			</g>
		</g>
		<g>
			<g>
				<path d="M62,62c-0.6,0-1-0.4-1-1V9c0-0.6,0.4-1,1-1s1,0.4,1,1v52C63,61.6,62.5,62,62,62z"/>
			</g>
		</g>
		<g>
			<g>
				<path d="M62,46H52c-0.6,0-1-0.4-1-1s0.4-1,1-1h10c0.6,0,1,0.4,1,1S62.5,46,62,46z"/>
			</g>
		</g>
		<g>
			<g>
				<path d="M57,51c-0.6,0-1-0.4-1-1c0-3.3,2.7-6,6-6c0.6,0,1,0.4,1,1s-0.4,1-1,1c-2.2,0-4,1.8-4,4C58,50.6,57.6,51,57,51z"/>
			</g>
		</g>
		<g>
			<g>
				<path d="M57,62c-0.6,0-1-0.4-1-1V50c0-0.6,0.4-1,1-1s1,0.4,1,1v11C58,61.6,57.6,62,57,62z"/>
			</g>
		</g>
		<g>
			<g>
				<path d="M52,51c-0.6,0-1-0.4-1-1c0-3.3,2.7-6,6-6c0.6,0,1,0.4,1,1s-0.4,1-1,1c-2.2,0-4,1.8-4,4C53,50.6,52.6,51,52,51z"/>
			</g>
		</g>
		<g>
			<g>
				<path d="M52,62c-0.6,0-1-0.4-1-1V50c0-0.6,0.4-1,1-1s1,0.4,1,1v11C53,61.6,52.6,62,52,62z"/>
			</g>
		</g>
		<g>
			<g>
				<path d="M47,51c-0.6,0-1-0.4-1-1c0-3.3,2.7-6,6-6c0.6,0,1,0.4,1,1s-0.4,1-1,1c-2.2,0-4,1.8-4,4C48,50.6,47.6,51,47,51z"/>
			</g>
		</g>
		<g>
			<g>
				<path d="M47,62c-0.6,0-1-0.4-1-1V50c0-0.6,0.4-1,1-1s1,0.4,1,1v11C48,61.6,47.5,62,47,62z"/>
			</g>
		</g>
		<g>
			<g>
				<path d="M62,62H47c-0.6,0-1-0.4-1-1s0.4-1,1-1h15c0.6,0,1,0.4,1,1S62.5,62,62,62z"/>
			</g>
		</g>
		<g>
			<g>
				<path d="M62,8c-0.6,0-1-0.4-1-1V6c0-0.6,0.4-1,1-1s1,0.4,1,1v1C63,7.6,62.5,8,62,8z"/>
			</g>
		</g>
		<g>
			<g>
				<path d="M54,8c-0.6,0-1-0.4-1-1V6c0-0.6,0.4-1,1-1s1,0.4,1,1v1C55,7.6,54.5,8,54,8z"/>
			</g>
		</g>
		<g>
			<g>
				<path d="M46,8c-0.6,0-1-0.4-1-1V6c0-0.6,0.4-1,1-1s1,0.4,1,1v1C47,7.6,46.6,8,46,8z"/>
			</g>
		</g>
		<g>
			<g>
				<path d="M38,8c-0.6,0-1-0.4-1-1V6c0-0.6,0.4-1,1-1s1,0.4,1,1v1C39,7.6,38.6,8,38,8z"/>
			</g>
		</g>
	</g>
</g>
</svg>
