<svg xmlns="http://www.w3.org/2000/svg" viewBox="0 0 56.9 71.74"><title>door</title><path d="M126,137.2H79V65.46h47Zm-44.53-2.47h42.06V67.93H81.42Z" transform="translate(-74 -65.46)"/><path d="M119.77,137.2H85.14V71.65h34.63Zm-32.16-2.47h29.68V74.12H87.61Z" transform="translate(-74 -65.46)"/><rect y="69.27" width="56.9" height="2.47"/><path d="M93.18,111.23a3.1,3.1,0,1,1,3.09-3.1A3.1,3.1,0,0,1,93.18,111.23Zm0-3.72a.62.62,0,1,0,.61.62A.62.62,0,0,0,93.18,107.51Z" transform="translate(-74 -65.46)"/></svg>