<?xml version="1.0" encoding="utf-8"?>
<!-- Generator: Adobe Illustrator 22.1.0, SVG Export Plug-In . SVG Version: 6.00 Build 0)  -->
<svg version="1.1" id="Laag_1" xmlns="http://www.w3.org/2000/svg" xmlns:xlink="http://www.w3.org/1999/xlink" x="0px" y="0px"
	 viewBox="0 0 100 99.9" style="enable-background:new 0 0 100 99.9;" xml:space="preserve">
<g>
	<g>
		<polygon points="76.3,89.4 74.3,89.4 74.3,11.6 25.7,11.6 25.7,89.4 23.7,89.4 23.7,9.6 76.3,9.6 		"/>
	</g>
	<g>
		<rect x="10.6" y="88.4" width="78.7" height="2"/>
	</g>
	<g>
		<path d="M66,51c-2.4,0-4.4-2-4.4-4.4s2-4.4,4.4-4.4c2.4,0,4.4,2,4.4,4.4S68.4,51,66,51z M66,44.2c-1.3,0-2.4,1.1-2.4,2.4
			S64.6,49,66,49s2.4-1.1,2.4-2.4S67.3,44.2,66,44.2z"/>
	</g>
</g>
</svg>
