<svg id="garage" xmlns="http://www.w3.org/2000/svg" viewBox="0 0 47.07 39.65"><title>garage</title><path d="M6.91,8.15a2.38,2.38,0,0,0-2.36,2.36v3.13A2.38,2.38,0,0,0,6.91,16h.78V47.81H9.26V25.41H46.92v22.4h1.57V16h.78a2.38,2.38,0,0,0,2.36-2.36V10.51a2.38,2.38,0,0,0-2.36-2.36Zm0,1.57H49.27a.77.77,0,0,1,.79.79v3.13a.77.77,0,0,1-.79.79H6.91a.77.77,0,0,1-.79-.79V10.51A.77.77,0,0,1,6.91,9.72ZM9.26,16H46.92v1.57H9.26Zm0,3.14H46.92V20.7H9.26Zm0,3.13H46.92v1.57H9.26ZM25.2,31.69a5.09,5.09,0,0,0-1.76.19,4.88,4.88,0,0,0-1.88,1.29l-3.35,3.31L12.79,38a2.91,2.91,0,0,0-1.32.76,2.37,2.37,0,0,0-.62,1.6v3.11A2.28,2.28,0,0,0,13,45.83h2.75a3.15,3.15,0,0,0,5.85,0l13,0a3.15,3.15,0,0,0,5.86,0h2.74a2.28,2.28,0,0,0,2.16-2.39V38.77a2.28,2.28,0,0,0-2.16-2.39H40.71l-3.62-3.31a4.15,4.15,0,0,0-3-1.38Zm0,1.57h2.89v2.32a.75.75,0,0,1-.59.82h-7l2.15-2.12h0a3.46,3.46,0,0,1,1.27-.91A4.18,4.18,0,0,1,25.2,33.26Zm4.46,0h1.57v2.32A2.27,2.27,0,0,0,33.38,38h9.8c.25,0,.58.31.58.82V41.1H43a.79.79,0,1,0,0,1.57h.76v.77c0,.52-.33.82-.59.82H40.59a3.15,3.15,0,0,0-6.17,0l-12.66,0a3.14,3.14,0,0,0-6.17,0H13c-.26,0-.58-.31-.58-.82v-.77h.77a.79.79,0,1,0,0-1.57h-.77v-.77a.67.67,0,0,1,.19-.52,1.43,1.43,0,0,1,.6-.33l5.59-1.54v0h8.7a2.28,2.28,0,0,0,2.16-2.38Zm3.14,0h1.27a2.42,2.42,0,0,1,1.88.89l0,0L38.4,36.4h-5c-.26,0-.58-.31-.58-.82Zm-6.28,6.27a.79.79,0,1,0,0,1.57h1.57a.79.79,0,1,0,0-1.57Zm5.5,0a.79.79,0,1,0,0,1.57h1.57a.79.79,0,1,0,0-1.57ZM18.67,43.28a1.48,1.48,0,1,1-1.56,1.48A1.51,1.51,0,0,1,18.67,43.28Zm18.83,0a1.48,1.48,0,1,1-1.57,1.48A1.51,1.51,0,0,1,37.5,43.28Z" transform="translate(-4.55 -8.15)"/></svg>