<?xml version="1.0" encoding="utf-8"?>
<!-- Generator: Adobe Illustrator 22.1.0, SVG Export Plug-In . SVG Version: 6.00 Build 0)  -->
<svg version="1.1" id="Laag_1" xmlns="http://www.w3.org/2000/svg" xmlns:xlink="http://www.w3.org/1999/xlink" x="0px" y="0px"
	 viewBox="0 0 66 64.2" style="enable-background:new 0 0 66 64.2;" xml:space="preserve">
<g>
	<path d="M27.6,40.8c-0.2,0.5,0,1.1,0.4,1.3c0.1,0.1,2.4,1.3,2.7,6c0,0.5,0.5,0.9,1,0.9c0,0,0,0,0.1,0c0.5,0,1-0.5,0.9-1
		C32.3,42.3,28.5,39,27.6,40.8z"/>
	<path d="M16.7,27.8c-0.1-0.4-0.4-0.6-0.8-0.7l-3.3-0.5l-1.5-3c-0.3-0.7-1.4-0.7-1.8,0l-1.5,3l-3.3,0.5c-0.4,0.1-0.7,0.3-0.8,0.7
		c-0.1,0.4,0,0.7,0.2,1l2.4,2.4l-0.6,3.3c-0.1,0.4,0.1,0.7,0.4,1c0.3,0.2,0.7,0.2,1,0.1l3-1.6l3,1.6c0.3,0.2,0.7,0.1,1-0.1
		c0.3-0.2,0.5-0.6,0.4-1L14,31.2l2.4-2.4C16.7,28.6,16.8,28.2,16.7,27.8z M12.3,30.1C12,30.4,11.9,30.7,12,31l0.3,1.9L10.6,32
		c-0.3-0.2-0.6-0.2-0.9,0L8,32.9L8.4,31c0.1-0.3-0.1-0.6-0.3-0.9l-1.4-1.3l1.9-0.3c0.3,0,0.6-0.2,0.7-0.5l0.8-1.7L11,28
		c0.1,0.3,0.4,0.5,0.7,0.5l1.9,0.3L12.3,30.1z"/>
	<path d="M62.2,10.6c-0.1-0.4-0.4-0.6-0.8-0.7l-2.5-0.4l-1.1-2.3c-0.2-0.3-0.5-0.5-0.9-0.5S56.2,6.9,56,7.3l-1.1,2.3l-2.5,0.4
		c-0.4,0.1-0.7,0.3-0.8,0.7c-0.1,0.4,0,0.7,0.2,1l1.8,1.8l-0.4,2.5c-0.1,0.4,0.1,0.7,0.4,1c0.3,0.2,0.7,0.2,1,0.1l2.2-1.2l2.2,1.2
		c0.3,0.2,0.7,0.1,1-0.1c0.3-0.2,0.5-0.6,0.4-1l-0.4-2.5l1.8-1.8C62.2,11.3,62.3,10.9,62.2,10.6z M58.4,12.3
		c-0.2,0.2-0.3,0.6-0.3,0.9l0.2,1l-0.9-0.5c-0.3-0.2-0.6-0.2-0.9,0l-0.9,0.5l0.2-1c0.1-0.3-0.1-0.6-0.3-0.9l-0.8-0.7l1-0.2
		c0.3,0,0.6-0.2,0.7-0.5l0.5-0.9l0.5,0.9c0.1,0.3,0.4,0.5,0.7,0.5l1,0.2L58.4,12.3z"/>
	<path d="M26.4,7c-0.1-0.4-0.4-0.6-0.8-0.7L23.1,6L22,3.7c-0.3-0.7-1.4-0.7-1.8,0L19.1,6l-2.5,0.4c-0.4,0.1-0.7,0.3-0.8,0.7
		c-0.1,0.4,0,0.7,0.2,1l1.8,1.8l-0.4,2.5c-0.1,0.4,0.1,0.7,0.4,1c0.3,0.2,0.7,0.2,1,0.1l2.2-1.2l2.2,1.2c0.3,0.2,0.7,0.1,1-0.1
		c0.3-0.2,0.5-0.6,0.4-1l-0.4-2.5L26.2,8C26.4,7.7,26.5,7.4,26.4,7z M22.6,8.7c-0.2,0.2-0.3,0.6-0.3,0.9l0.2,1l-0.9-0.5
		c-0.1-0.1-0.3-0.1-0.5-0.1s-0.3,0-0.5,0.1l-0.9,0.5l0.2-1c0.1-0.3-0.1-0.6-0.3-0.9L18.9,8l1-0.2c0.3,0,0.6-0.2,0.7-0.5l0.5-0.9
		l0.5,0.9c0.1,0.3,0.4,0.5,0.7,0.5l1,0.2L22.6,8.7z"/>
	<path d="M63.9,51.5c-1.1,0.2-2.1,0.3-3.2,0.3c-6.7,0-12.9-3.3-16.5-8.9c-4.3-6.5-4.3-15,0-21.5c0.2-0.3,0.2-0.7,0-1.1
		c-0.2-0.3-0.6-0.5-1-0.4c-3,0.5-5.8,1.6-8.3,3.2c-4.4,2.8-7.5,7.1-8.9,12.1c-0.6-0.1-1.3-0.2-1.9-0.2c-6.3,0-11.6,4.6-12.6,10.7
		c-1.7-0.4-3.5-0.3-5.2,0.3C3.1,47.2,1,50.3,1,53.7c0,0.8,0.1,1.7,0.4,2.5c1.1,3.5,4.3,5.9,8,5.9h29.5c0.5,0,1-0.1,1.5-0.2
		c6.2,1.9,12.8,0.9,18.1-2.6c2.5-1.7,4.7-3.8,6.3-6.3c0.2-0.3,0.2-0.7,0-1.1C64.6,51.6,64.2,51.4,63.9,51.5z M9.3,60.1
		c-2.8,0-5.2-1.8-6.1-4.5C3.1,55,3,54.3,3,53.7c0-2.6,1.6-5,4-5.9c0.7-0.3,1.5-0.5,2.3-0.5c0.7,0,1.4,0.1,2.1,0.3
		c0.1,0.8,0.4,2.1,1.2,3.1c0.2,0.2,0.5,0.3,0.7,0.3c0.2,0,0.5-0.1,0.6-0.2c0.4-0.4,0.5-1,0.1-1.4c-0.6-0.7-0.8-2-0.8-2.5
		c0.3-5.7,5.1-10.1,10.8-10.1c6.8,0,11.9,6.2,10.6,12.9c-0.4,0.7-1.9,3.4-1,5.5c0.2,0.4,0.5,0.6,0.9,0.6c0.1,0,0.3,0,0.4-0.1
		c0.5-0.2,0.7-0.8,0.5-1.3c-0.4-1,0.4-2.8,0.9-3.6c3.6-2.3,8.3,0.8,7.5,5c-0.4,2.4-2.5,4.2-4.9,4.2L9.3,60.1L9.3,60.1z M57.5,57.7
		c-4.3,2.8-9.3,3.8-14.3,2.9c6-4.8,0.8-14.3-6.5-12c0.4-5.9-3.5-11.3-8.9-13C29.2,31,32,27.2,36,24.7c1.7-1.1,3.5-1.9,5.4-2.5
		C34,36.5,44.4,53.7,60.7,53.7c0.4,0,0.8,0,1.2,0C60.6,55.2,59.2,56.6,57.5,57.7z"/>
	<path d="M34.3,16.7c0.3,0.3,0.7,0.3,1.1,0.2l3.4-1.6c0.5-0.2,0.7-0.8,0.5-1.3c-0.2-0.5-0.8-0.7-1.3-0.5l-1.2,0.6l1-2.8
		c0.1-0.4,0-0.8-0.3-1.1c-0.3-0.3-0.7-0.3-1.1-0.2L33,11.7c-0.5,0.2-0.7,0.8-0.5,1.3c0.2,0.5,0.8,0.7,1.3,0.5l1.2-0.6l-1,2.8
		C33.9,16.1,34,16.5,34.3,16.7z"/>
	<path d="M48.5,28.7c0.3,0.3,0.7,0.3,1.1,0.2l3.4-1.6c0.5-0.2,0.7-0.8,0.5-1.3c-0.2-0.5-0.8-0.7-1.3-0.5L50.9,26l1-2.8
		c0.1-0.4,0-0.8-0.3-1.1c-0.3-0.3-0.7-0.3-1.1-0.2l-3.4,1.6c-0.5,0.2-0.7,0.8-0.5,1.3c0.2,0.5,0.8,0.7,1.3,0.5l1.2-0.6l-1,2.8
		C48.1,28,48.2,28.4,48.5,28.7z"/>
	<path d="M53,44.7l3.4-1.6c0.5-0.2,0.7-0.8,0.5-1.3c-0.2-0.5-0.8-0.7-1.3-0.5l-1.2,0.6l1-2.8c0.1-0.4,0-0.8-0.3-1.1
		c-0.3-0.3-0.7-0.3-1.1-0.2l-3.4,1.6c-0.5,0.2-0.7,0.8-0.5,1.3c0.2,0.5,0.8,0.7,1.3,0.5l1.2-0.6l-1,2.8C51.4,44.3,52.2,45.1,53,44.7
		z"/>
</g>
</svg>
