<?xml version="1.0" encoding="utf-8"?>
<!-- Generator: Adobe Illustrator 22.1.0, SVG Export Plug-In . SVG Version: 6.00 Build 0)  -->
<svg version="1.1" id="Layer_1" xmlns="http://www.w3.org/2000/svg" xmlns:xlink="http://www.w3.org/1999/xlink" x="0px" y="0px"
	 viewBox="0 0 200 200" style="enable-background:new 0 0 200 200;" xml:space="preserve">
<style type="text/css">
	.st0{display:none;}
	.st1{display:inline;fill:#020203;}
	.st2{fill:#020203;}
</style>
<g id="Layer_1_1_" class="st0">
	<path class="st1" d="M122.3,123.7h-6V76.5c0-7-5.7-12.7-12.7-12.7c-4.4,0-8.4,2.3-10.8,6s-2.5,8.4-0.6,12.3
		c3.6,7.2,3.9,15.5,1,22.9c-5.5-2.2-11.7-3.3-16.9-3.3c-8.6,0-15.6,6.8-15.9,15.3c-1.3,1.9-2,4.2-2,6.7c0,6.6,5.4,12,12,12
		c2.4,0,4.7-0.7,6.6-2h16.9c1.1,1.2,2.7,2,4.4,2c3,0,5.4-2.2,5.9-5c2.5-2.2,4.1-5.4,4.1-9c0-6.5-4.9-11.6-11.4-15
		c3.4-8.5,3.1-18.1-1.1-26.4c-1.3-2.7-1.2-5.9,0.4-8.4s4.3-4.1,7.4-4.1c4.8,0,8.7,3.9,8.7,8.7v49.2v8c0,1.1,0.9,2,2,2h16
		c1.1,0,2-0.9,2-2C132.3,128.2,127.8,123.7,122.3,123.7z M70.4,131.7c-4.4,0-8-3.6-8-8s3.6-8,8-8s8,3.6,8,8
		C78.4,128.1,74.8,131.7,70.4,131.7z M104.1,119.7c0.2,0.7,0.2,1.3,0.2,2c0,4.4-3.6,8-8,8H80.8c1-1.8,1.6-3.8,1.6-6
		c0-6.6-5.4-12-12-12c-1.8,0-3.4,0.4-4.9,1.1c1.9-4.2,6.1-7.1,10.9-7.1c1.1,0,2.3,0.1,3.5,0.2l3.3,7.7c1.6,3.7,5.2,6.1,9.2,6.1
		C92.4,119.7,104.1,119.7,104.1,119.7z M102.1,115.7h-9.7c-2.4,0-4.6-1.4-5.5-3.6l-2.3-5.5C91.5,108.1,98.6,111.3,102.1,115.7z
		 M116.3,131.7v-4h6c2.6,0,4.8,1.7,5.7,4H116.3z"/>
</g>
<g id="Layer_2_1_">
	<g>
		<path class="st2" d="M75.9,108.2c3.3,9.1,6.1,28,6.1,28c-1.2,0-1.2-1-2.3-1c-1.2,0-1.2,1-2.3,1s-1.2-1-2.3-1c-1.2,0-1.2,1-2.3,1
			c-1.2,0-1.2-1-2.3-1s-1.1,1-2.3,1s-1.2-1-2.3-1c-1.2,0-1.2,1-2.3,1c-1.2,0-1.2-1-2.3-1c-1.2,0-1.2,1-2.3,1v-29.4L75.9,108.2z
			 M132.1,64.2V66h-41v1.1c1.1,0.5,1.3,2.2,2.8,2.2c0,0-0.2,0.7-0.7,2h36.3v45.9H83.7V92.3c-2.1,3.5-4.3,6.6-6.8,8.8l-17.8-1.5v0
			V69.2c1.5,0,1.7-1.7,2.8-2.2V66h-2.8v-1.8h2.8v-0.4c0-0.3,0.3-0.6,0.7-0.6s0.7,0.3,0.7,0.6v0.4h5.5v-0.4c0-0.3,0.3-0.6,0.7-0.6
			s0.7,0.3,0.7,0.6v0.4h5.5v-0.4c0-0.3,0.3-0.6,0.7-0.6s0.7,0.3,0.7,0.6v0.4h5.5v-0.4c0-0.3,0.3-0.6,0.7-0.6s0.7,0.3,0.7,0.6v0.4
			h5.5v-0.4c0-0.3,0.3-0.6,0.7-0.6s0.7,0.3,0.7,0.6v0.4H132.1L132.1,64.2z M68.9,66h-5.5v1.1c1.1,0.5,1.3,2.2,2.8,2.2
			s1.7-1.7,2.8-2.2V66L68.9,66z M75.8,66h-5.5v1.1c1.1,0.5,1.3,2.2,2.8,2.2s1.7-1.7,2.8-2.2C75.8,67.1,75.8,66,75.8,66z M82.8,66
			h-5.5v1.1c1.1,0.5,1.3,2.2,2.8,2.2s1.7-1.7,2.8-2.2C82.8,67.1,82.8,66,82.8,66z M84.2,67.1c1.1,0.5,1.3,2.2,2.8,2.2
			s1.7-1.7,2.8-2.2V66h-5.5C84.2,66,84.2,67.1,84.2,67.1z M105.3,96.4H86.2v18.1h19.1V96.4L105.3,96.4z M107.9,93.8H127v-20h-19.1
			V93.8z M107.9,114.6H127V96.4h-19.1V114.6z M92.3,73.8c-1.3,3.6-3.4,8.7-6.1,13.8v6.2h19.1v-20H92.3z M78.2,106.8l0.2-4.2
			c0.1-0.4-0.3-0.8-0.7-0.8l-18.5-1.5v5.6l18.1,1.5C77.7,107.6,78.1,107.3,78.2,106.8z M81.1,124.8h51V119h-51V124.8z"/>
	</g>
</g>
<g id="Layer_3">
</g>
</svg>
