<svg id="hal" xmlns="http://www.w3.org/2000/svg" viewBox="0 0 23.78 44.78"><title>hal</title><path d="M28.38,12.25a.7.7,0,0,1-.7-.7.35.35,0,1,0-.7,0,.7.7,0,0,1-1.4,0,1.75,1.75,0,1,1,3.5,0A.7.7,0,0,1,28.38,12.25Z" transform="translate(-15.09 -5.59)"/><path d="M28.38,47.57a.7.7,0,0,1-.7-.7V11.55a.7.7,0,1,1,1.4,0V46.87A.7.7,0,0,1,28.38,47.57Z" transform="translate(-15.09 -5.59)"/><path d="M26.28,47.57a.7.7,0,0,1-.7-.7V11.55a.7.7,0,1,1,1.4,0V46.87A.7.7,0,0,1,26.28,47.57Z" transform="translate(-15.09 -5.59)"/><path d="M31.18,50.37a3.5,3.5,0,0,1-3.5-3.5.7.7,0,0,1,1.4,0,2.1,2.1,0,0,0,2.1,2.1.7.7,0,0,1,0,1.4Z" transform="translate(-15.09 -5.59)"/><path d="M23.49,50.37a.7.7,0,0,1,0-1.4,2.1,2.1,0,0,0,2.09-2.1.7.7,0,0,1,1.4,0A3.5,3.5,0,0,1,23.49,50.37Z" transform="translate(-15.09 -5.59)"/><path d="M29.08,45.47H25.59a.7.7,0,0,1,0-1.4h3.49a.7.7,0,0,1,0,1.4Z" transform="translate(-15.09 -5.59)"/><path d="M29.08,47.57H25.59a.7.7,0,1,1,0-1.4h3.49a.7.7,0,0,1,0,1.4Z" transform="translate(-15.09 -5.59)"/><path d="M30.48,12.59a.7.7,0,0,1,0-1.4,2.1,2.1,0,0,0,2.1-2.1.7.7,0,0,1,1.4,0A3.5,3.5,0,0,1,30.48,12.59Z" transform="translate(-15.09 -5.59)"/><path d="M30.48,16.78a2.8,2.8,0,1,1,0-5.59.7.7,0,0,1,0,1.4,1.4,1.4,0,0,0,0,2.8.7.7,0,1,1,0,1.39Z" transform="translate(-15.09 -5.59)"/><path d="M24.19,12.59a3.53,3.53,0,0,1-2.69-1.25.7.7,0,0,1,.09-1,.69.69,0,0,1,1,.09,2.14,2.14,0,0,0,1.62.75.7.7,0,0,1,0,1.4Z" transform="translate(-15.09 -5.59)"/><path d="M24.19,16.78a.7.7,0,1,1,0-1.39,1.4,1.4,0,0,0,0-2.8.7.7,0,1,1,0-1.4,2.8,2.8,0,1,1,0,5.59Z" transform="translate(-15.09 -5.59)"/><path d="M34.68,50.37H20A.7.7,0,0,1,20,49H34.68a.7.7,0,0,1,0,1.4Z" transform="translate(-15.09 -5.59)"/><path d="M24.88,32.88a.7.7,0,0,1,0-1.4.7.7,0,0,0,.7-.7.7.7,0,0,1,1.4,0A2.1,2.1,0,0,1,24.88,32.88Z" transform="translate(-15.09 -5.59)"/><path d="M29.78,32.88a2.1,2.1,0,0,1-2.1-2.1.7.7,0,0,1,1.4,0,.7.7,0,0,0,.7.7.7.7,0,0,1,0,1.4Z" transform="translate(-15.09 -5.59)"/><path d="M28.38,31.48h-2.1a.7.7,0,1,1,0-1.4h2.1a.7.7,0,1,1,0,1.4Z" transform="translate(-15.09 -5.59)"/><path d="M20.69,19.58c-.81,0-1.36-.86-1.73-2.72a.71.71,0,0,1,.55-.82.69.69,0,0,1,.82.55,7,7,0,0,0,.37,1.3,15.75,15.75,0,0,0,.69-5.3,15.83,15.83,0,0,0-.69-5.31,7.21,7.21,0,0,0-.37,1.3.69.69,0,0,1-.82.55A.7.7,0,0,1,19,8.31c.37-1.85.92-2.72,1.73-2.72,1.95,0,2.1,5.36,2.1,7S22.64,19.58,20.69,19.58Z" transform="translate(-15.09 -5.59)"/><path d="M20,17.49h-.11l-4.2-.7a.71.71,0,0,1-.57-.83l.67-3.36-.67-3.36a.7.7,0,0,1,.57-.83l4.2-.7a.67.67,0,0,1,.56.16.69.69,0,0,1,.25.53v8.4a.69.69,0,0,1-.25.53A.66.66,0,0,1,20,17.49Zm-3.37-2,2.67.44V9.22l-2.67.44.56,2.79a.66.66,0,0,1,0,.28Z" transform="translate(-15.09 -5.59)"/><path d="M31.87,16.79h-1.4a.7.7,0,0,1,0-1.4h1.4a.7.7,0,0,1,0,1.4Z" transform="translate(-15.09 -5.59)"/><path d="M31.87,18.19a.7.7,0,0,1-.69-.7v-1.4a.7.7,0,0,1,.7-.7h0a.69.69,0,0,1,.7.69v1.4a.7.7,0,0,1-.69.71Z" transform="translate(-15.09 -5.59)"/><path d="M38.17,36.38a.7.7,0,0,1-.7-.7V19.59a.7.7,0,0,1,1.4,0V35.68A.7.7,0,0,1,38.17,36.38Z" transform="translate(-15.09 -5.59)"/><path d="M30.48,36.38a.7.7,0,0,1-.7-.7V20.29a.7.7,0,1,1,1.4,0V35.68A.71.71,0,0,1,30.48,36.38Z" transform="translate(-15.09 -5.59)"/><path d="M35.37,23.78a.7.7,0,0,1-.7-.7.7.7,0,1,0-1.4,0,.7.7,0,1,1-1.39,0,2.1,2.1,0,1,1,4.19,0A.7.7,0,0,1,35.37,23.78Z" transform="translate(-15.09 -5.59)"/><path d="M32.57,37.78h0a.71.71,0,0,1-.7-.7v-14a.7.7,0,0,1,.7-.7h0a.7.7,0,0,1,.69.7v14A.7.7,0,0,1,32.57,37.78Z" transform="translate(-15.09 -5.59)"/><path d="M35.37,37.78a.71.71,0,0,1-.7-.7v-14a.7.7,0,1,1,1.4,0v14A.7.7,0,0,1,35.37,37.78Z" transform="translate(-15.09 -5.59)"/><path d="M35.37,37.78h-2.8a.7.7,0,1,1,0-1.4h2.8a.7.7,0,0,1,0,1.4Z" transform="translate(-15.09 -5.59)"/><path d="M38.17,36.38h-2.8a.7.7,0,0,1,0-1.4h2.8a.7.7,0,1,1,0,1.4Z" transform="translate(-15.09 -5.59)"/><path d="M32.51,36.38h-2a.7.7,0,1,1,0-1.4h2a.7.7,0,0,1,0,1.4Z" transform="translate(-15.09 -5.59)"/><path d="M30.48,21a.7.7,0,0,1-.7-.7,2.1,2.1,0,0,1,2.09-2.1.7.7,0,0,1,0,1.4.69.69,0,0,0-.69.7A.71.71,0,0,1,30.48,21Z" transform="translate(-15.09 -5.59)"/><path d="M31.87,19.59a.7.7,0,0,1-.69-.7v-1.4a.7.7,0,1,1,1.39,0v1.4A.7.7,0,0,1,31.87,19.59Z" transform="translate(-15.09 -5.59)"/><path d="M36.07,18.89a.7.7,0,0,1-.7-.7v-.7a.7.7,0,1,1,1.4,0v.7A.7.7,0,0,1,36.07,18.89Z" transform="translate(-15.09 -5.59)"/><path d="M37.47,20.29a.71.71,0,0,1-.7-.7.7.7,0,0,1,.7-.7h.7a.7.7,0,1,1,0,1.39Z" transform="translate(-15.09 -5.59)"/><path d="M36.07,18.19h-4.2a.7.7,0,0,1,0-1.4h4.2a.7.7,0,0,1,0,1.4Z" transform="translate(-15.09 -5.59)"/><path d="M37.47,20.29a2.11,2.11,0,0,1-2.1-2.1.7.7,0,0,1,1.4,0,.7.7,0,0,0,.7.7.7.7,0,0,1,0,1.4Z" transform="translate(-15.09 -5.59)"/><path d="M35.37,35.68h-.69a.7.7,0,0,1,0-1.4h.69a.7.7,0,0,1,0,1.4Z" transform="translate(-15.09 -5.59)"/></svg>