<?xml version="1.0" encoding="utf-8"?>
<!-- Generator: Adobe Illustrator 22.1.0, SVG Export Plug-In . SVG Version: 6.00 Build 0)  -->
<svg version="1.1" id="Laag_1" xmlns="http://www.w3.org/2000/svg" xmlns:xlink="http://www.w3.org/1999/xlink" x="0px" y="0px"
	 viewBox="0 0 79.2 92.5" style="enable-background:new 0 0 79.2 92.5;" xml:space="preserve">
<g>
	<path d="M39.6,80.5c-1.3,0-31-0.1-31-5.5c0-0.3,0.1-0.6,0.3-0.9l4.3-10.3c0.1-0.2,0.2-0.4,0.4-0.5l18.6-10.7l2.9-7.9
		c0.1-0.4,0.5-0.7,0.9-0.7h2.6V13h0.1l-3.9-6.4c-0.2-0.3-0.2-0.7,0-1C35,5.2,35.3,5,35.7,5h7.9c0.4,0,0.7,0.2,0.9,0.5s0.2,0.7,0,1
		l-4,6.5h0.1v31h2.5c0.4,0,0.8,0.3,0.9,0.7l2.9,7.9l18.7,10.7c0.2,0.1,0.3,0.3,0.4,0.5l4.3,10.3c0.2,0.3,0.3,0.6,0.3,0.9
		C70.6,80.4,40.9,80.5,39.6,80.5z M10.7,75c1.4,1.5,12,3.5,28.9,3.5s27.6-2,28.9-3.5v-0.1c-1.3-1.3-9.6-3-23-3.4
		c-0.5,2.8-3,4.9-5.9,4.9s-5.4-2.1-5.9-4.9C20.4,72,12,73.7,10.7,75L10.7,75z M35.7,71.5c0.5,1.7,2,3,3.9,3s3.4-1.3,3.9-3
		C41,71.5,38.2,71.5,35.7,71.5z M39.6,69.5c1,0,20.1,0,27.8,2.8l-3.1-7.4c-4.1-1.6-13.8-3.8-24.8-3.8c-10.9,0-20.5,2.2-24.6,3.8
		l-3.1,7.4C19.5,69.5,38.6,69.5,39.6,69.5z M39.5,59.1c6.8,0,13.1,0.8,18,1.9l-11.9-6.8c-0.2-0.1-0.4-0.3-0.4-0.5L42.4,46h-5.6
		L34,53.6c-0.1,0.2-0.2,0.4-0.4,0.5l-11.8,6.8C26.8,59.9,33,59.1,39.5,59.1z M37.4,7l2.2,3.6L41.8,7H37.4z"/>
</g>
</svg>
