<svg id="Layer_9" data-name="Layer 9" xmlns="http://www.w3.org/2000/svg" xmlns:xlink="http://www.w3.org/1999/xlink" viewBox="0 0 40.28 40.28"><defs><style>.cls-1{fill:none;}.cls-2{clip-path:url(#clip-path);}</style><clipPath id="clip-path" transform="translate(-8.36 -8.84)"><rect class="cls-1" x="8.36" y="8.84" width="40.28" height="40.28"/></clipPath></defs><title>kitchen</title><g class="cls-2"><path d="M16.57,23.76H40.43a.75.75,0,0,0,.47-1.33l-7.18-5.74V9.59A.74.74,0,0,0,33,8.84H24a.74.74,0,0,0-.74.75v7.1L16.1,22.43a.75.75,0,0,0,.47,1.33m7.92-6.13a.74.74,0,0,0,.28-.59V10.33h7.46V17a.74.74,0,0,0,.28.59l5.8,4.64H18.69Z" transform="translate(-8.36 -8.84)"/><path d="M24,46.13h9a.74.74,0,0,0,.74-.74V40.91a.74.74,0,0,0-.74-.74H24a.74.74,0,0,0-.74.74v4.48a.74.74,0,0,0,.74.74m.75-4.47h7.46v3H24.77Z" transform="translate(-8.36 -8.84)"/><path d="M24,38.68h1.5a.75.75,0,0,0,0-1.5H24a.75.75,0,0,0,0,1.5" transform="translate(-8.36 -8.84)"/><path d="M31.48,38.68H33a.75.75,0,0,0,0-1.5h-1.5a.75.75,0,0,0,0,1.5" transform="translate(-8.36 -8.84)"/><path d="M47.89,34.2H9.11a.75.75,0,1,0,0,1.49h.74V48.37a.76.76,0,0,0,.75.75H46.4a.76.76,0,0,0,.75-.75V35.69h.74a.75.75,0,1,0,0-1.49M35.21,47.63H21.79V35.69H35.21ZM11.34,35.69h9V47.63h-9ZM45.66,47.63h-9V35.69h9Z" transform="translate(-8.36 -8.84)"/><path d="M27.72,38.67h1.49a.74.74,0,0,0,.75-.74.75.75,0,0,0-.75-.75H27.72a.75.75,0,0,0-.74.75.74.74,0,0,0,.74.74" transform="translate(-8.36 -8.84)"/></g></svg>