<svg id="kitchen" xmlns="http://www.w3.org/2000/svg" viewBox="0 0 48.47 48.71"><title>kitchen</title><path d="M52.55,16.81H48.88V9.47H46.29L49,4.53,47.27,3.6,44,9.47H32.25v7.34H26.87V10.94h2.94V6.05H26.87V3.46H7.8V6.05H5v4.89H7.8v5.87H4.13V21.7h2.1V50.56h4v1.61h5V50.56H41.54v1.61h5V50.56H50.5V21.7h2.1V16.81ZM34.21,11.43H46.92v5.38H34.21ZM27.85,9H25.5V8h2.35ZM7,8h2.3V9H7Zm2.79,2.93h1.47V6.05H9.75V5.41H24.91v.64H23.55v4.89h1.36v5.87H9.75ZM48.54,48.6H8.19V21.7H48.54Z" transform="translate(-4.13 -3.46)"/><path d="M14.57,46.56H41.38V38.12h2.48V31.17H41.38v-3H14.57v3H12.09v6.95h2.48Zm-.49-10.42v-3h27.8v3H14.08Z" transform="translate(-4.13 -3.46)"/><path d="M24.5,27.52a2.63,2.63,0,1,0-2.63-2.63A2.65,2.65,0,0,0,24.5,27.52Zm0-3.33a.65.65,0,1,1-.65.65A.66.66,0,0,1,24.5,24.19Z" transform="translate(-4.13 -3.46)"/><path d="M31.45,27.52a2.63,2.63,0,1,0-2.63-2.63A2.65,2.65,0,0,0,31.45,27.52Zm0-3.33a.65.65,0,1,1-.65.65A.66.66,0,0,1,31.45,24.19Z" transform="translate(-4.13 -3.46)"/><path d="M38.4,27.52a2.63,2.63,0,1,0-2.63-2.63A2.65,2.65,0,0,0,38.4,27.52Zm0-3.33a.65.65,0,1,1-.65.65A.66.66,0,0,1,38.4,24.19Z" transform="translate(-4.13 -3.46)"/><path d="M17.55,27.52a2.63,2.63,0,1,0-2.63-2.63A2.65,2.65,0,0,0,17.55,27.52Zm0-3.33a.65.65,0,1,1-.65.65A.66.66,0,0,1,17.55,24.19Z" transform="translate(-4.13 -3.46)"/></svg>