<?xml version="1.0" encoding="utf-8"?>
<!-- Generator: Adobe Illustrator 23.0.2, SVG Export Plug-In . SVG Version: 6.00 Build 0)  -->
<svg version="1.1" xmlns="http://www.w3.org/2000/svg" xmlns:xlink="http://www.w3.org/1999/xlink" x="0px" y="0px"
	 viewBox="0 0 200 200" style="enable-background:new 0 0 200 200;" xml:space="preserve">
<style type="text/css">
	.st0{display:none;}
	.st1{display:inline;fill:#020203;}
	.st2{display:inline;}
	.st3{fill:#020203;}
</style>
<g id="Layer_1" class="st0">
	<path class="st1" d="M122.31,123.73h-5.99v-47.2c0-6.98-5.68-12.67-12.67-12.67c-4.42,0-8.45,2.25-10.78,6.01
		c-2.33,3.76-2.53,8.37-0.55,12.33c3.59,7.18,3.93,15.49,0.99,22.92c-5.51-2.19-11.67-3.34-16.9-3.34c-8.58,0-15.57,6.8-15.93,15.29
		c-1.28,1.91-2.03,4.2-2.03,6.66c0,6.6,5.37,11.97,11.97,11.97c2.44,0,4.71-0.74,6.6-2h16.89c1.1,1.22,2.68,2,4.45,2
		c2.96,0,5.42-2.16,5.9-4.99c2.5-2.2,4.08-5.4,4.08-8.98c0-6.53-4.88-11.58-11.39-14.96c3.44-8.54,3.08-18.11-1.05-26.37
		c-1.35-2.71-1.21-5.86,0.38-8.44c1.59-2.58,4.35-4.12,7.38-4.12c4.78,0,8.68,3.89,8.68,8.68v49.2v7.98c0,1.1,0.89,2,2,2h15.97
		c1.1,0,2-0.89,2-2C132.29,128.2,127.81,123.73,122.31,123.73z M70.42,131.71c-4.4,0-7.98-3.58-7.98-7.98c0-4.4,3.58-7.98,7.98-7.98
		c4.4,0,7.98,3.58,7.98,7.98C78.41,128.13,74.83,131.71,70.42,131.71z M104.11,119.73c0.16,0.65,0.25,1.31,0.25,2
		c0,4.4-3.58,7.98-7.98,7.98H80.78c1.02-1.76,1.62-3.81,1.62-5.99c0-6.6-5.37-11.97-11.97-11.97c-1.75,0-3.42,0.39-4.92,1.07
		c1.88-4.15,6.06-7.06,10.91-7.06c1.12,0,2.28,0.06,3.48,0.18l3.32,7.74c1.57,3.67,5.17,6.05,9.17,6.05H104.11z M102.1,115.74h-9.72
		c-2.4,0-4.56-1.42-5.5-3.63l-2.34-5.46C91.52,108.12,98.6,111.3,102.1,115.74z M116.32,131.71v-3.99h5.99
		c2.6,0,4.82,1.67,5.65,3.99H116.32z"/>
</g>
<g id="Layer_2" class="st0">
	<g class="st2">
		<path class="st3" d="M75.94,108.16c3.31,9.11,6.14,28.01,6.14,28.01c-1.15,0-1.15-0.97-2.29-0.97c-1.15,0-1.15,0.97-2.29,0.97
			s-1.15-0.97-2.29-0.97c-1.15,0-1.15,0.97-2.29,0.97c-1.15,0-1.15-0.97-2.29-0.97s-1.14,0.97-2.29,0.97
			c-1.15,0-1.15-0.97-2.29-0.97c-1.15,0-1.15,0.97-2.29,0.97c-1.15,0-1.15-0.97-2.29-0.97c-1.15,0-1.15,0.97-2.29,0.97v-29.39
			L75.94,108.16z M132.12,64.18v1.8H91.16v1.07c1.07,0.53,1.31,2.21,2.77,2.21c0,0-0.24,0.74-0.69,1.99h36.32v45.91H83.66V92.31
			c-2.07,3.47-4.35,6.61-6.75,8.8l-17.76-1.46v-0.02V69.25c1.47,0,1.7-1.68,2.78-2.21v-1.07h-2.78v-1.8h2.78V63.8
			c0-0.33,0.32-0.6,0.71-0.6c0.39,0,0.71,0.27,0.71,0.6v0.38h5.53V63.8c0-0.33,0.32-0.6,0.71-0.6c0.39,0,0.71,0.27,0.71,0.6v0.38
			h5.54V63.8c0-0.33,0.32-0.6,0.71-0.6s0.71,0.27,0.71,0.6v0.38h5.54V63.8c0-0.33,0.32-0.6,0.71-0.6c0.39,0,0.71,0.27,0.71,0.6v0.38
			h5.54V63.8c0-0.33,0.32-0.6,0.71-0.6s0.71,0.27,0.71,0.6v0.38L132.12,64.18L132.12,64.18z M68.88,65.98h-5.53v1.07
			c1.07,0.53,1.3,2.2,2.76,2.2c1.46,0,1.7-1.67,2.77-2.2L68.88,65.98L68.88,65.98z M75.83,65.98h-5.54v1.07
			c1.07,0.53,1.31,2.21,2.77,2.21c1.46,0,1.7-1.67,2.77-2.2V65.98z M82.79,65.98h-5.54v1.07c1.08,0.53,1.31,2.21,2.77,2.21
			c1.46,0,1.7-1.67,2.77-2.2V65.98z M84.21,67.05c1.07,0.53,1.31,2.2,2.77,2.2c1.46,0,1.7-1.67,2.77-2.2v-1.07h-5.54V67.05z
			 M105.32,96.43H86.25v18.14h19.07L105.32,96.43L105.32,96.43z M107.91,93.84h19.07V73.83h-19.07V93.84z M107.91,114.57h19.07
			V96.43h-19.07V114.57z M92.29,73.83c-1.34,3.56-3.45,8.72-6.05,13.79v6.22h19.07V73.83H92.29z M78.15,106.85l0.23-4.15
			c0.06-0.41-0.27-0.77-0.73-0.81l-18.5-1.49v5.63l18.07,1.48C77.67,107.56,78.09,107.26,78.15,106.85z M81.11,124.84h51.01v-5.85
			H81.11V124.84z"/>
	</g>
</g>
<g id="Layer_3" class="st0">
	<path class="st1" d="M124.46,84.4c0.35,0.09,0.62,0.44,0.71,0.79l0.62,3.71l3.45,1.59c0.35,0.18,0.62,0.53,0.62,0.88
		c0,0.35-0.18,0.71-0.53,0.88l-3.36,1.77l-0.44,3.71l0,0c-0.09,0.35-0.35,0.71-0.71,0.8c-0.35,0.09-0.79,0-1.06-0.26l-2.65-2.65
		l-3.71,0.71c-0.35,0.09-0.71-0.09-0.97-0.35s-0.26-0.71-0.09-1.06l1.68-3.36l-1.85-3.27c-0.18-0.35-0.09-0.71,0.09-1.06
		s0.62-0.53,0.97-0.44l3.71,0.53l2.65-2.74c0.18-0.27,0.44-0.35,0.71-0.35C124.37,84.22,124.46,84.22,124.46,84.4z M118.45,88.81
		l1.5,2.74l-1.41,2.83l3.09-0.62l2.3,2.21l0.53-3.18l2.83-1.5l-2.92-1.32l-0.53-3.09l-2.21,2.3L118.45,88.81z M117.83,125.3
		c0.44,0,0.79,0.26,0.97,0.62l1.06,2.74l2.83,0.62c0.35,0.09,0.62,0.35,0.71,0.71s-0.09,0.71-0.35,0.97l-2.21,1.86l0.27,2.91
		c0,0.35-0.18,0.79-0.44,1.06c-0.35,0.18-0.71,0.18-1.06,0l-2.47-1.59l-2.65,1.15l0,0c-0.35,0.09-0.79,0.09-1.06-0.18
		c-0.35-0.26-0.44-0.62-0.35-0.97l0.71-2.83l-1.94-2.21c-0.26-0.35-0.35-0.71-0.18-1.06s0.53-0.62,0.88-0.62l2.92-0.18l1.5-2.47
		C117.13,125.47,117.48,125.3,117.83,125.3L117.83,125.3z M115.63,131.74l-0.53,2.21l2.12-0.88l1.94,1.24l-0.09-2.21l1.77-1.41
		l-2.21-0.53l-0.88-2.12l-1.15,1.94l-2.3,0.18L115.63,131.74z M69.69,123.88c0.35,0.09,0.62,0.44,0.71,0.79l0.44,3.09l2.83,1.59
		c0.35,0.18,0.53,0.53,0.53,0.88s-0.18,0.71-0.53,0.88l-2.83,1.41l-0.44,3.09l0,0c-0.09,0.35-0.35,0.71-0.71,0.79
		c-0.44,0.09-0.8,0-1.06-0.26l-2.21-2.3l-3.09,0.53c-0.35,0-0.71-0.09-0.97-0.44s-0.26-0.71-0.09-1.06l1.5-2.83l-1.5-2.83
		c-0.18-0.35-0.18-0.8,0.09-1.06s0.62-0.44,0.97-0.35l3.09,0.53l2.21-2.3c0.18-0.18,0.44-0.26,0.71-0.26
		C69.43,123.79,69.6,123.79,69.69,123.88z M64.57,127.95l1.15,2.21l-1.15,2.21l2.47-0.44l1.77,1.77l0.35-2.39l2.3-1.15l-2.3-1.15
		l-0.35-2.47l-1.77,1.77L64.57,127.95z M129.67,68.5c0.44,0.09,0.62,0.44,0.71,0.8l0.35,2.56l2.38,1.15
		c0.35,0.18,0.53,0.53,0.53,0.88c0,0.35-0.18,0.71-0.53,0.88l-2.38,1.15l-0.35,2.56c-0.09,0.35-0.35,0.71-0.71,0.79
		c-0.35,0.09-0.71,0-0.97-0.26l-1.85-1.86l-2.56,0.44c-0.35,0.09-0.79-0.09-0.97-0.35c-0.26-0.35-0.26-0.71-0.09-1.06l1.24-2.3
		l-1.24-2.3c-0.18-0.35-0.09-0.79,0.09-1.06c0.26-0.26,0.62-0.44,0.97-0.35l2.56,0.44l1.85-1.85c0.18-0.18,0.44-0.27,0.71-0.27
		C129.49,68.5,129.58,68.5,129.67,68.5z M125.61,72.21l0.88,1.77l-0.88,1.77l1.94-0.35l1.33,1.41l0.26-1.94l1.77-0.88l-1.77-0.88
		l-0.26-1.94l-1.33,1.41L125.61,72.21z M81.79,64.61l2.65,2.47l3.53-0.79c0.35-0.09,0.71,0.09,0.97,0.35
		c0.18,0.26,0.26,0.71,0.09,1.06l-1.5,3.27l1.85,3.18c0.26,0.35,0.18,0.71,0,1.06c-0.18,0.35-0.62,0.53-0.97,0.44l-3.62-0.44
		l-2.38,2.74c-0.26,0.26-0.71,0.35-1.06,0.26s-0.62-0.44-0.71-0.79l-0.71-3.62l-3.36-1.41c-0.35-0.18-0.62-0.44-0.62-0.88
		c0-0.44,0.18-0.79,0.53-0.97l3.18-1.77l0.35-3.62c0-0.44,0.26-0.71,0.62-0.88c0.09-0.09,0.26-0.09,0.35-0.09
		C81.26,64.17,81.44,64.26,81.79,64.61z M81.35,72.47l0.62,3l2.03-2.3l3,0.35l-1.59-2.65l1.33-2.74l-3,0.62l-2.21-2.03l-0.26,3
		l-2.65,1.5L81.35,72.47z M104.23,85.81c-0.09,0-0.09,0-0.09,0c-2.3-1.32-4.86-2.21-7.51-2.56c-0.97-0.09-2.03-0.18-3-0.18
		c-10.6,0-19.87,7.86-21.38,18.64c-0.79,5.74,0.71,11.4,4.06,15.99c3.44,4.59,8.48,7.6,14.22,8.39c2.74,0.35,5.39,0.26,7.95-0.35
		c0.26-0.09,0.53-0.35,0.62-0.71c0-0.26-0.09-0.71-0.44-0.88c-7.07-3.97-11.13-12.1-9.98-20.14c1.15-8.13,7.24-14.75,15.19-16.61
		c0.35-0.09,0.62-0.35,0.71-0.71c0-0.09,0-0.26,0-0.35C104.58,86.16,104.41,85.99,104.23,85.81z M101.4,86.34
		c-7.6,2.65-13.16,9.36-14.31,17.4s2.39,16.08,8.83,20.76c-1.68,0.18-3.36,0.18-5.03-0.09c-5.21-0.71-9.89-3.44-13.07-7.69
		c-3.18-4.24-4.5-9.54-3.8-14.75c1.5-10.86,11.57-18.46,22.44-16.96C98.14,85.28,99.81,85.72,101.4,86.34z M109.8,111.78
		c0,1.68-1.41,3.09-3.09,3.09c-1.68,0-3.09-1.41-3.09-3.09s1.41-3.09,3.09-3.09C108.38,108.69,109.71,110.1,109.8,111.78z
		 M108.03,111.78c0-0.71-0.62-1.32-1.32-1.32s-1.33,0.62-1.33,1.32s0.62,1.33,1.33,1.33S108.03,112.49,108.03,111.78z M61.21,116.82
		c0,1.5-1.15,2.65-2.65,2.65s-2.65-1.15-2.65-2.65c0-1.5,1.24-2.65,2.65-2.65S61.21,115.31,61.21,116.82z M59.45,116.82
		c0-0.53-0.35-0.88-0.88-0.88c-0.53,0-0.88,0.35-0.88,0.88c0,0.53,0.44,0.88,0.88,0.88C59,117.7,59.45,117.35,59.45,116.82z
		 M113.42,65.49c0,1.5-1.15,2.65-2.65,2.65s-2.65-1.15-2.65-2.65s1.24-2.65,2.65-2.65C112.27,62.84,113.42,63.99,113.42,65.49z
		 M111.65,65.49c0-0.53-0.35-0.88-0.88-0.88s-0.88,0.35-0.88,0.88s0.44,0.88,0.88,0.88C111.3,66.38,111.65,66.02,111.65,65.49z
		 M135.41,123.26c0,1.5-1.15,2.65-2.65,2.65s-2.65-1.15-2.65-2.65c0-1.5,1.24-2.65,2.65-2.65
		C134.26,120.61,135.41,121.76,135.41,123.26z M133.65,123.18c0-0.53-0.35-0.88-0.88-0.88s-0.88,0.35-0.88,0.88s0.44,0.88,0.88,0.88
		C133.29,124.06,133.65,123.71,133.65,123.18z M67.84,81.66c0,1.77-1.41,3.18-3.18,3.18c-1.77,0-3.18-1.41-3.18-3.18
		c0-1.77,1.41-3.18,3.18-3.18C66.42,78.48,67.84,79.89,67.84,81.66z M66.07,81.66c0-0.79-0.62-1.41-1.41-1.41
		c-0.8,0-1.41,0.62-1.41,1.41c0,0.8,0.62,1.41,1.41,1.41S66.07,82.45,66.07,81.66z"/>
</g>
<g id="Layer_4">
	<g transform="translate(0,-952.36218)">
		<path class="st3" d="M95.2,1017.13c-1.19,0-2.16,0.97-2.16,2.16v5.75c0,1.19,0.97,2.16,2.16,2.16c1.19,0,2.16-0.97,2.16-2.16
			v-5.75C97.36,1018.1,96.39,1017.13,95.2,1017.13z M74.87,1025.56c-0.55,0-1.11,0.21-1.53,0.63c-0.84,0.84-0.84,2.21,0,3.05
			l4.07,4.07c0.84,0.84,2.21,0.84,3.05,0c0.84-0.84,0.84-2.21,0-3.05l-4.07-4.07C75.98,1025.77,75.42,1025.56,74.87,1025.56z
			 M115.53,1025.56c-0.55,0-1.11,0.21-1.53,0.63l-4.07,4.07c-0.84,0.84-0.84,2.21,0,3.05c0.84,0.84,2.21,0.84,3.05,0l4.07-4.07
			c0.84-0.84,0.84-2.21,0-3.05C116.63,1025.77,116.08,1025.56,115.53,1025.56z M95.2,1030.07c-9.88,0-19.41,7.69-19.41,18.58
			c0,6.78,2.68,11.17,5.08,14.56c2.39,3.38,4.27,5.68,4.27,9.28v8.63c0,2.83,2.36,5.03,5.03,5.03h10.06c2.68,0,5.03-2.2,5.03-5.03
			v-8.63c0-3.6,1.88-5.89,4.27-9.28c2.39-3.38,5.08-7.78,5.08-14.56C114.61,1037.76,105.08,1030.07,95.2,1030.07z M95.2,1034.39
			c7.65,0,15.09,5.91,15.09,14.26c0,5.7-1.99,8.83-4.27,12.06c-1.94,2.75-4.26,5.64-4.9,9.61H89.27c-0.64-3.97-2.95-6.86-4.9-9.61
			c-2.28-3.23-4.27-6.36-4.27-12.06C80.1,1040.3,87.55,1034.39,95.2,1034.39z M91.81,1036.54c-0.31-0.01-0.63,0.03-0.97,0.11
			c-4.68,1.76-8.18,5.88-9.07,10.92c-0.19,1.12,0.63,2.32,1.75,2.52c1.12,0.19,2.32-0.66,2.52-1.77c0.63-3.53,3.07-6.4,6.33-7.64
			c0.94-0.35,1.54-1.42,1.37-2.4C93.48,1037.06,92.73,1036.57,91.81,1036.54z M66.45,1045.89c-1.19,0-2.16,0.97-2.16,2.16
			s0.97,2.16,2.16,2.16h5.75c1.19,0,2.16-0.97,2.16-2.16s-0.97-2.16-2.16-2.16H66.45z M118.2,1045.89c-1.19,0-2.16,0.97-2.16,2.16
			c0,1.19,0.97,2.16,2.16,2.16h5.75c1.19,0,2.16-0.97,2.16-2.16c0-1.19-0.97-2.16-2.16-2.16H118.2z M89.45,1074.64h11.5v1.44h-11.5
			V1074.64z M89.45,1080.39h11.5v0.72c0,0.47-0.36,0.72-0.72,0.72H90.17c-0.36,0-0.72-0.25-0.72-0.72V1080.39z"/>
	</g>
</g>
</svg>
