<?xml version="1.0" encoding="utf-8"?>
<!-- Generator: Adobe Illustrator 22.1.0, SVG Export Plug-In . SVG Version: 6.00 Build 0)  -->
<svg version="1.1" id="Laag_1" xmlns="http://www.w3.org/2000/svg" xmlns:xlink="http://www.w3.org/1999/xlink" x="0px" y="0px"
	 viewBox="0 0 79.3 90.3" style="enable-background:new 0 0 79.3 90.3;" xml:space="preserve">
<path d="M72.6,17.1c-0.1-0.4-0.4-0.8-0.9-0.9L49.4,9.4L42,2.1c-0.5-0.5-1.3-0.5-1.8,0l-3.1,3.1L36,3.9c-0.5-0.5-1.3-0.5-1.8,0
	s-0.5,1.3,0,1.8l1.2,1.2L32.4,10c-0.5,0.5-0.5,1.3,0,1.8l2.4,2.4L16.1,32.8c0,0,0,0,0,0c-1-0.6-2.1-1-3.3-1c-3.3,0-6.1,2.7-6.1,6.1
	s2.7,6.1,6.1,6.1c0.6,0,1.2-0.1,1.8-0.3l19.8,33.9h-8.1c-2.4,0-4.4,2-4.4,4.4v5.5c0,0.7,0.6,1.2,1.2,1.2h36c0.7,0,1.2-0.6,1.2-1.2
	v-5.5c0-2.4-2-4.4-4.4-4.4h-3.2v-1.4c0-0.7-0.6-1.2-1.2-1.2s-1.2,0.6-1.2,1.2v1.4h-13L16.7,42.4c1.3-1.1,2.1-2.8,2.1-4.6
	c0-1.2-0.4-2.4-1-3.3c0,0,0,0,0,0l18.7-18.7l3.3,3.3l6.7,22.3c0.1,0.4,0.5,0.7,0.9,0.9c0.1,0,0.2,0,0.3,0c0.3,0,0.6-0.1,0.9-0.4
	l7.2-7.2c1.2,0.9,2.7,1.3,4.2,1.3c1.9,0,3.8-0.8,5.1-2.1c1.4-1.4,2.1-3.2,2.1-5.1c0-1.5-0.5-3-1.3-4.2l6.4-6.4
	C72.6,17.9,72.7,17.5,72.6,17.1z M57.8,81.9v4.2H24.3v-4.2c0-1,0.8-1.9,1.9-1.9h29.7C57,80,57.8,80.9,57.8,81.9z M9.2,37.9
	c0-2,1.6-3.6,3.6-3.6c2,0,3.6,1.6,3.6,3.6s-1.6,3.6-3.6,3.6C10.8,41.4,9.2,39.8,9.2,37.9z M41.2,4.7l5.8,5.8l-6.1,6.1L35,10.8
	L41.2,4.7z M64.7,28.8c0,1.3-0.5,2.5-1.4,3.4c-0.9,0.9-2.1,1.4-3.4,1.4c-0.8,0-1.6-0.2-2.4-0.6l6.5-6.5C64.4,27.2,64.7,28,64.7,28.8
	z M48.3,38.7l-6-19.9l6.8-6.8L69,18L48.3,38.7z"/>
</svg>
