<?xml version="1.0" encoding="utf-8"?>
<!-- Generator: Adobe Illustrator 22.1.0, SVG Export Plug-In . SVG Version: 6.00 Build 0)  -->
<svg version="1.1" id="Laag_1" xmlns="http://www.w3.org/2000/svg" xmlns:xlink="http://www.w3.org/1999/xlink" x="0px" y="0px"
	 viewBox="0 0 48 48" style="enable-background:new 0 0 48 48;" xml:space="preserve">
<title>curtain_1</title>
<path d="M48,4c0-2.2-1.8-4-4-4H4C1.8,0,0,1.8,0,4c0,1.4,0.8,2.7,2,3.4L3.2,12H3c-0.3,0-0.6,0.1-0.8,0.4C2,12.6,2,12.9,2,13.2L3.2,18
	H3c-0.3,0-0.6,0.1-0.8,0.4C2,18.6,2,18.9,2,19.2L3.2,24H3c-0.3,0-0.6,0.1-0.8,0.4C2,24.6,2,24.9,2,25.2L3.2,30H3
	c-0.3,0-0.6,0.1-0.8,0.4C2,30.6,2,30.9,2,31.2l1.5,6c0.1,0.5,0.5,0.8,1,0.8h29v4.2c-1.6,0.6-2.4,2.3-1.8,3.8
	c0.6,1.6,2.3,2.4,3.8,1.8c1.6-0.6,2.4-2.3,1.8-3.8c-0.3-0.9-1-1.5-1.8-1.8V38h8c0.5,0,0.9-0.3,1-0.8l1.5-6c0.1-0.3,0-0.6-0.2-0.9
	C45.6,30.1,45.3,30,45,30h-0.2l1.2-4.8c0.1-0.3,0-0.6-0.2-0.9C45.6,24.1,45.3,24,45,24h-0.2l1.2-4.8c0.1-0.3,0-0.6-0.2-0.9
	C45.6,18.1,45.3,18,45,18h-0.2l1.2-4.8c0.1-0.3,0-0.6-0.2-0.9C45.6,12.1,45.3,12,45,12h-0.2l1.1-4.5C47.2,6.8,48,5.5,48,4z M2,4
	c0-1.1,0.9-2,2-2h29.5v4H4C2.9,6,2,5.1,2,4z M5.3,24l-1-4h29.2v4H5.3z M33.5,26v4H5.3l-1-4H33.5z M5.3,18l-1-4h29.2v4H5.3z M5.3,12
	l-1-4h29.2v4H5.3z M5.3,36l-1-4h29.2v4H5.3z M34.5,46c-0.6,0-1-0.4-1-1s0.4-1,1-1s1,0.4,1,1S35.1,46,34.5,46z M42.7,36h-7.2v-4h8.2
	L42.7,36z M42.7,30h-7.2v-4h8.2L42.7,30z M42.7,24h-7.2v-4h8.2L42.7,24z M42.7,18h-7.2v-4h8.2L42.7,18z M42.7,12h-7.2V8h8.2L42.7,12
	z M44,6h-8.5V2H44c1.1,0,2,0.9,2,2S45.1,6,44,6z"/>
</svg>
