<?xml version="1.0" encoding="utf-8"?>
<!-- Generator: Adobe Illustrator 22.1.0, SVG Export Plug-In . SVG Version: 6.00 Build 0)  -->
<svg version="1.1" id="Laag_1" xmlns="http://www.w3.org/2000/svg" xmlns:xlink="http://www.w3.org/1999/xlink" x="0px" y="0px"
	 viewBox="0 0 100 78.6" style="enable-background:new 0 0 100 78.6;" xml:space="preserve">
<style type="text/css">
	.st0{fill:none;stroke:#000000;stroke-linecap:round;stroke-linejoin:round;stroke-miterlimit:10;}
</style>
<rect x="25" y="17.4" class="st0" width="50" height="45"/>
<path class="st0" d="M75,17.4v45l15,7.5v-60L75,17.4z M86.2,64.3l-7.5-3.8V41.8h7.5V64.3z M86.2,38.1h-7.5V19.3l7.5-3.8V38.1z"/>
<path class="st0" d="M10,9.9v60l15-7.5v-45L10,9.9z M21.3,60.5l-7.5,3.8V41.8h7.5V60.5z M21.3,38.1h-7.5V15.6l7.5,3.8V38.1z"/>
<polygon class="st0" points="80,14.9 80,12.4 20,12.4 20,14.9 25,17.4 25,62.4 20,64.9 20,67.4 80,67.4 80,64.9 75,62.4 75,17.4 "/>
<path class="st0" d="M50,35.4v4.5V35.4z"/>
<path class="st0" d="M37.3,30.2l-3.2,3.2L37.3,30.2z"/>
<path class="st0" d="M62.7,30.2l3.2,3.2L62.7,30.2z"/>
<path class="st0" d="M33.4,24.3L29.2,26L33.4,24.3z"/>
<path class="st0" d="M56.9,34.1l1.7,4.2L56.9,34.1z"/>
<path class="st0" d="M43.1,34.1l-1.7,4.2L43.1,34.1z"/>
<path class="st0" d="M66.6,24.3l4.2,1.7L66.6,24.3z"/>
<path class="st0" d="M50,30.9c7.4,0,13.4-6,13.5-13.4h-27C36.6,24.9,42.6,30.9,50,30.9z"/>
</svg>
