<?xml version="1.0" encoding="utf-8"?>
<!-- Generator: Adobe Illustrator 22.1.0, SVG Export Plug-In . SVG Version: 6.00 Build 0)  -->
<svg version="1.1" xmlns="http://www.w3.org/2000/svg" xmlns:xlink="http://www.w3.org/1999/xlink" x="0px" y="0px"
	 viewBox="0 0 200 200" style="enable-background:new 0 0 200 200;" xml:space="preserve">
<style type="text/css">
	.st0{display:none;}
	.st1{display:inline;fill:#020203;}
	.st2{display:inline;}
	.st3{fill:#020203;}
</style>
<g id="Layer_1">
	<g id="Layer_1_1_" class="st0">
		<path class="st1" d="M122.3,123.7h-6V76.5c0-7-5.7-12.7-12.7-12.7c-4.4,0-8.4,2.3-10.8,6s-2.5,8.4-0.6,12.3
			c3.6,7.2,3.9,15.5,1,22.9c-5.5-2.2-11.7-3.3-16.9-3.3c-8.6,0-15.6,6.8-15.9,15.3c-1.3,1.9-2,4.2-2,6.7c0,6.6,5.4,12,12,12
			c2.4,0,4.7-0.7,6.6-2h16.9c1.1,1.2,2.7,2,4.4,2c3,0,5.4-2.2,5.9-5c2.5-2.2,4.1-5.4,4.1-9c0-6.5-4.9-11.6-11.4-15
			c3.4-8.5,3.1-18.1-1.1-26.4c-1.3-2.7-1.2-5.9,0.4-8.4s4.3-4.1,7.4-4.1c4.8,0,8.7,3.9,8.7,8.7v49.2v8c0,1.1,0.9,2,2,2h16
			c1.1,0,2-0.9,2-2C132.3,128.2,127.8,123.7,122.3,123.7z M70.4,131.7c-4.4,0-8-3.6-8-8s3.6-8,8-8s8,3.6,8,8
			C78.4,128.1,74.8,131.7,70.4,131.7z M104.1,119.7c0.2,0.7,0.2,1.3,0.2,2c0,4.4-3.6,8-8,8H80.8c1-1.8,1.6-3.8,1.6-6
			c0-6.6-5.4-12-12-12c-1.8,0-3.4,0.4-4.9,1.1c1.9-4.2,6.1-7.1,10.9-7.1c1.1,0,2.3,0.1,3.5,0.2l3.3,7.7c1.6,3.7,5.2,6.1,9.2,6.1
			C92.4,119.7,104.1,119.7,104.1,119.7z M102.1,115.7h-9.7c-2.4,0-4.6-1.4-5.5-3.6l-2.3-5.5C91.5,108.1,98.6,111.3,102.1,115.7z
			 M116.3,131.7v-4h6c2.6,0,4.8,1.7,5.7,4H116.3z"/>
	</g>
	<g id="Layer_2_1_" class="st0">
		<g class="st2">
			<path class="st3" d="M75.9,108.2c3.3,9.1,6.1,28,6.1,28c-1.2,0-1.2-1-2.3-1c-1.2,0-1.2,1-2.3,1s-1.2-1-2.3-1c-1.2,0-1.2,1-2.3,1
				c-1.2,0-1.2-1-2.3-1s-1.1,1-2.3,1s-1.2-1-2.3-1c-1.2,0-1.2,1-2.3,1c-1.2,0-1.2-1-2.3-1c-1.2,0-1.2,1-2.3,1v-29.4L75.9,108.2z
				 M132.1,64.2V66h-41v1.1c1.1,0.5,1.3,2.2,2.8,2.2c0,0-0.2,0.7-0.7,2h36.3v45.9H83.7V92.3c-2.1,3.5-4.3,6.6-6.8,8.8l-17.8-1.5v0
				V69.2c1.5,0,1.7-1.7,2.8-2.2V66h-2.8v-1.8h2.8v-0.4c0-0.3,0.3-0.6,0.7-0.6s0.7,0.3,0.7,0.6v0.4h5.5v-0.4c0-0.3,0.3-0.6,0.7-0.6
				s0.7,0.3,0.7,0.6v0.4h5.5v-0.4c0-0.3,0.3-0.6,0.7-0.6s0.7,0.3,0.7,0.6v0.4h5.5v-0.4c0-0.3,0.3-0.6,0.7-0.6s0.7,0.3,0.7,0.6v0.4
				h5.5v-0.4c0-0.3,0.3-0.6,0.7-0.6s0.7,0.3,0.7,0.6v0.4H132.1L132.1,64.2z M68.9,66h-5.5v1.1c1.1,0.5,1.3,2.2,2.8,2.2
				s1.7-1.7,2.8-2.2V66L68.9,66z M75.8,66h-5.5v1.1c1.1,0.5,1.3,2.2,2.8,2.2s1.7-1.7,2.8-2.2C75.8,67.1,75.8,66,75.8,66z M82.8,66
				h-5.5v1.1c1.1,0.5,1.3,2.2,2.8,2.2s1.7-1.7,2.8-2.2C82.8,67.1,82.8,66,82.8,66z M84.2,67.1c1.1,0.5,1.3,2.2,2.8,2.2
				s1.7-1.7,2.8-2.2V66h-5.5C84.2,66,84.2,67.1,84.2,67.1z M105.3,96.4H86.2v18.1h19.1V96.4L105.3,96.4z M107.9,93.8H127v-20h-19.1
				V93.8z M107.9,114.6H127V96.4h-19.1V114.6z M92.3,73.8c-1.3,3.6-3.4,8.7-6.1,13.8v6.2h19.1v-20H92.3z M78.2,106.8l0.2-4.2
				c0.1-0.4-0.3-0.8-0.7-0.8l-18.5-1.5v5.6l18.1,1.5C77.7,107.6,78.1,107.3,78.2,106.8z M81.1,124.8h51V119h-51V124.8z"/>
		</g>
	</g>
	<g id="Layer_3">
		<path class="st3" d="M124.5,84.4c0.3,0.1,0.6,0.4,0.7,0.8l0.6,3.7l3.5,1.6c0.4,0.2,0.6,0.5,0.6,0.9s-0.2,0.7-0.5,0.9L126,94
			l-0.4,3.7l0,0c-0.1,0.3-0.3,0.7-0.7,0.8c-0.3,0.1-0.8,0-1.1-0.3l-2.7-2.7l-3.7,0.7c-0.3,0.1-0.7-0.1-1-0.3s-0.3-0.7-0.1-1.1
			l1.7-3.4l-1.8-3.3c-0.2-0.3-0.1-0.7,0.1-1.1s0.6-0.5,1-0.4l3.7,0.5l2.7-2.7c0.2-0.3,0.4-0.3,0.7-0.3
			C124.4,84.2,124.5,84.2,124.5,84.4z M118.4,88.8l1.5,2.7l-1.4,2.8l3.1-0.6l2.3,2.2l0.5-3.2l2.8-1.5l-2.9-1.3l-0.5-3.1l-2.2,2.3
			L118.4,88.8z M117.8,125.3c0.4,0,0.8,0.3,1,0.6l1.1,2.7l2.8,0.6c0.3,0.1,0.6,0.4,0.7,0.7s-0.1,0.7-0.3,1l-2.2,1.9l0.3,2.9
			c0,0.4-0.2,0.8-0.4,1.1c-0.3,0.2-0.7,0.2-1.1,0l-2.5-1.6l-2.7,1.1l0,0c-0.3,0.1-0.8,0.1-1.1-0.2c-0.3-0.3-0.4-0.6-0.3-1l0.7-2.8
			l-1.9-2.2c-0.3-0.4-0.3-0.7-0.2-1.1s0.5-0.6,0.9-0.6l2.9-0.2l1.5-2.5C117.1,125.5,117.5,125.3,117.8,125.3L117.8,125.3z
			 M115.6,131.7l-0.5,2.2l2.1-0.9l1.9,1.2l-0.1-2.2l1.8-1.4l-2.2-0.5l-0.9-2.1l-1.2,1.9l-2.3,0.2L115.6,131.7z M69.7,123.9
			c0.3,0.1,0.6,0.4,0.7,0.8l0.4,3.1l2.8,1.6c0.3,0.2,0.5,0.5,0.5,0.9s-0.2,0.7-0.5,0.9l-2.8,1.4l-0.4,3.1l0,0
			c-0.1,0.4-0.3,0.7-0.7,0.8c-0.4,0.1-0.8,0-1.1-0.3l-2.2-2.3l-3.1,0.5c-0.3,0-0.7-0.1-1-0.4s-0.3-0.7-0.1-1.1l1.5-2.8l-1.5-2.8
			c-0.2-0.3-0.2-0.8,0.1-1.1s0.6-0.4,1-0.3l3.1,0.5l2.2-2.3c0.2-0.2,0.4-0.3,0.7-0.3C69.4,123.8,69.6,123.8,69.7,123.9z M64.6,127.9
			l1.2,2.2l-1.2,2.2l2.5-0.4l1.8,1.8l0.3-2.4l2.3-1.1l-2.3-1.1l-0.3-2.5l-1.8,1.8L64.6,127.9z M129.7,68.5c0.4,0.1,0.6,0.4,0.7,0.8
			l0.4,2.6l2.4,1.2c0.4,0.2,0.5,0.5,0.5,0.9s-0.2,0.7-0.5,0.9l-2.4,1.2l-0.4,2.6c-0.1,0.3-0.4,0.7-0.7,0.8c-0.4,0.1-0.7,0-1-0.3
			l-1.8-1.9l-2.6,0.4c-0.3,0.1-0.8-0.1-1-0.3c-0.3-0.3-0.3-0.7-0.1-1.1l1.2-2.3l-1.2-2.3c-0.2-0.3-0.1-0.8,0.1-1.1
			c0.3-0.3,0.6-0.4,1-0.3l2.6,0.4l1.8-1.8c0.2-0.2,0.4-0.3,0.7-0.3C129.5,68.5,129.6,68.5,129.7,68.5z M125.6,72.2l0.9,1.8l-0.9,1.8
			l1.9-0.3l1.3,1.4l0.3-1.9l1.8-0.9l-1.8-0.9l-0.3-1.9l-1.3,1.4L125.6,72.2z M81.8,64.6l2.7,2.5l3.5-0.8c0.3-0.1,0.7,0.1,1,0.3
			c0.2,0.3,0.3,0.7,0.1,1.1L87.5,71l1.8,3.2c0.3,0.3,0.2,0.7,0,1.1s-0.6,0.5-1,0.4l-3.6-0.4l-2.4,2.7c-0.3,0.3-0.7,0.3-1.1,0.3
			s-0.6-0.4-0.7-0.8l-0.7-3.6l-3.4-1.4c-0.3-0.2-0.6-0.4-0.6-0.9c0-0.4,0.2-0.8,0.5-1l3.2-1.8l0.3-3.6c0-0.4,0.3-0.7,0.6-0.9
			c0.1-0.1,0.3-0.1,0.3-0.1C81.3,64.2,81.4,64.3,81.8,64.6z M81.3,72.5l0.6,3l2-2.3l3,0.3l-1.6-2.7l1.3-2.7l-3,0.6l-2.2-2l-0.3,3
			l-2.7,1.5L81.3,72.5z M104.2,85.8C104.1,85.8,104.1,85.8,104.2,85.8c-2.4-1.3-4.9-2.2-7.6-2.6c-1-0.1-2-0.2-3-0.2
			c-10.6,0-19.9,7.9-21.4,18.6c-0.8,5.7,0.7,11.4,4.1,16c3.4,4.6,8.5,7.6,14.2,8.4c2.7,0.3,5.4,0.3,7.9-0.3c0.3-0.1,0.5-0.3,0.6-0.7
			c0-0.3-0.1-0.7-0.4-0.9c-7.1-4-11.1-12.1-10-20.1c1.2-8.1,7.2-14.8,15.2-16.6c0.3-0.1,0.6-0.3,0.7-0.7c0-0.1,0-0.3,0-0.3
			C104.6,86.2,104.4,86,104.2,85.8z M101.4,86.3c-7.6,2.7-13.2,9.4-14.3,17.4s2.4,16.1,8.8,20.8c-1.7,0.2-3.4,0.2-5-0.1
			c-5.2-0.7-9.9-3.4-13.1-7.7c-3.2-4.2-4.5-9.5-3.8-14.8c1.5-10.9,11.6-18.5,22.4-17C98.1,85.3,99.8,85.7,101.4,86.3z M109.8,111.8
			c0,1.7-1.4,3.1-3.1,3.1c-1.7,0-3.1-1.4-3.1-3.1s1.4-3.1,3.1-3.1C108.4,108.7,109.7,110.1,109.8,111.8z M108,111.8
			c0-0.7-0.6-1.3-1.3-1.3s-1.3,0.6-1.3,1.3s0.6,1.3,1.3,1.3S108,112.5,108,111.8z M61.2,116.8c0,1.5-1.2,2.7-2.7,2.7
			s-2.7-1.2-2.7-2.7s1.2-2.7,2.7-2.7S61.2,115.3,61.2,116.8z M59.5,116.8c0-0.5-0.3-0.9-0.9-0.9c-0.5,0-0.9,0.3-0.9,0.9
			s0.4,0.9,0.9,0.9C59,117.7,59.5,117.3,59.5,116.8z M113.4,65.5c0,1.5-1.2,2.7-2.7,2.7s-2.7-1.2-2.7-2.7c0-1.5,1.2-2.7,2.7-2.7
			C112.3,62.8,113.4,64,113.4,65.5z M111.7,65.5c0-0.5-0.3-0.9-0.9-0.9s-0.9,0.3-0.9,0.9s0.4,0.9,0.9,0.9
			C111.3,66.4,111.7,66,111.7,65.5z M135.4,123.3c0,1.5-1.1,2.7-2.6,2.7s-2.6-1.2-2.6-2.7s1.2-2.7,2.6-2.7
			C134.3,120.6,135.4,121.8,135.4,123.3z M133.6,123.2c0-0.5-0.4-0.9-0.9-0.9s-0.9,0.3-0.9,0.9s0.4,0.9,0.9,0.9
			C133.3,124.1,133.6,123.7,133.6,123.2z M67.8,81.7c0,1.8-1.4,3.2-3.2,3.2c-1.8,0-3.2-1.4-3.2-3.2s1.4-3.2,3.2-3.2
			C66.4,78.5,67.8,79.9,67.8,81.7z M66.1,81.7c0-0.8-0.6-1.4-1.4-1.4c-0.8,0-1.4,0.6-1.4,1.4c0,0.8,0.6,1.4,1.4,1.4
			S66.1,82.4,66.1,81.7z"/>
	</g>
	<g id="Layer_4" class="st0">
		<g transform="translate(0,-952.36218)" class="st2">
			<path class="st3" d="M95.2,1017.1c-1.2,0-2.2,1-2.2,2.2v5.8c0,1.2,1,2.2,2.2,2.2s2.2-1,2.2-2.2v-5.8
				C97.4,1018.1,96.4,1017.1,95.2,1017.1z M74.9,1025.6c-0.6,0-1.1,0.2-1.5,0.6c-0.8,0.8-0.8,2.2,0,3.1l4.1,4.1
				c0.8,0.8,2.2,0.8,3.1,0c0.8-0.8,0.8-2.2,0-3.1l-4.1-4.1C76,1025.8,75.4,1025.6,74.9,1025.6z M115.5,1025.6
				c-0.6,0-1.1,0.2-1.5,0.6l-4.1,4.1c-0.8,0.8-0.8,2.2,0,3.1c0.8,0.8,2.2,0.8,3.1,0l4.1-4.1c0.8-0.8,0.8-2.2,0-3.1
				C116.6,1025.8,116.1,1025.6,115.5,1025.6z M95.2,1030.1c-9.9,0-19.4,7.7-19.4,18.6c0,6.8,2.7,11.2,5.1,14.6
				c2.4,3.4,4.3,5.7,4.3,9.3v8.6c0,2.8,2.4,5,5,5h10.1c2.7,0,5-2.2,5-5v-8.6c0-3.6,1.9-5.9,4.3-9.3c2.4-3.4,5.1-7.8,5.1-14.6
				C114.6,1037.8,105.1,1030.1,95.2,1030.1z M95.2,1034.4c7.7,0,15.1,5.9,15.1,14.3c0,5.7-2,8.8-4.3,12.1c-1.9,2.8-4.3,5.6-4.9,9.6
				H89.3c-0.6-4-2.9-6.9-4.9-9.6c-2.3-3.2-4.3-6.4-4.3-12.1C80.1,1040.3,87.6,1034.4,95.2,1034.4z M91.8,1036.5c-0.3,0-0.6,0-1,0.1
				c-4.7,1.8-8.2,5.9-9.1,10.9c-0.2,1.1,0.6,2.3,1.8,2.5c1.1,0.2,2.3-0.7,2.5-1.8c0.6-3.5,3.1-6.4,6.3-7.6c0.9-0.3,1.5-1.4,1.4-2.4
				C93.5,1037.1,92.7,1036.6,91.8,1036.5z M66.4,1045.9c-1.2,0-2.2,1-2.2,2.2s1,2.2,2.2,2.2h5.8c1.2,0,2.2-1,2.2-2.2s-1-2.2-2.2-2.2
				H66.4z M118.2,1045.9c-1.2,0-2.2,1-2.2,2.2c0,1.2,1,2.2,2.2,2.2h5.8c1.2,0,2.2-1,2.2-2.2c0-1.2-1-2.2-2.2-2.2H118.2z
				 M89.4,1074.6h11.5v1.4H89.4V1074.6z M89.4,1080.4h11.5v0.7c0,0.5-0.4,0.7-0.7,0.7H90.2c-0.4,0-0.7-0.2-0.7-0.7V1080.4z"/>
		</g>
	</g>
</g>
<g id="Layer_2">
</g>
</svg>
