<?xml version="1.0" encoding="utf-8"?>
<!-- Generator: Adobe Illustrator 22.1.0, SVG Export Plug-In . SVG Version: 6.00 Build 0)  -->
<svg version="1.1" id="Laag_1" xmlns="http://www.w3.org/2000/svg" xmlns:xlink="http://www.w3.org/1999/xlink" x="0px" y="0px"
	 viewBox="0 0 100 93.5" style="enable-background:new 0 0 100 93.5;" xml:space="preserve">
<path d="M70.5,23.9L64.3,1.5c-0.2-0.9-1-1.5-1.9-1.5H37.9c-0.9,0-1.7,0.6-1.9,1.5l-6.1,22.4c-0.2,0.6,0,1.3,0.3,1.8
	c0.4,0.5,1,0.8,1.6,0.8h16.6v63H37.2c-1.1,0-2,0.9-2,2s0.9,2,2,2H63c1.1,0,2-0.9,2-2s-0.9-2-2-2H52.4v-63h5.5v4
	c-0.5,0.4-0.8,0.9-0.8,1.6c0,1.1,0.9,2,2,2s2-0.9,2-2c0-0.7-0.3-1.2-0.8-1.6v-4h8.4c0.6,0,1.2-0.3,1.6-0.8
	C70.5,25.2,70.7,24.5,70.5,23.9z M34.4,22.4l5-18.4h21.4l5,18.4H34.4z"/>
</svg>
