<?xml version="1.0" encoding="utf-8"?>
<!-- Generator: Adobe Illustrator 23.0.2, SVG Export Plug-In . SVG Version: 6.00 Build 0)  -->
<svg version="1.1" id="Layer_1" xmlns="http://www.w3.org/2000/svg" xmlns:xlink="http://www.w3.org/1999/xlink" x="0px" y="0px"
	 viewBox="0 0 200 200" style="enable-background:new 0 0 200 200;" xml:space="preserve">
<style type="text/css">
	.st0{fill:#020203;}
</style>
<path class="st0" d="M122.31,123.73h-5.99v-47.2c0-6.98-5.68-12.67-12.67-12.67c-4.42,0-8.45,2.25-10.78,6.01
	c-2.33,3.76-2.53,8.37-0.55,12.33c3.59,7.18,3.93,15.49,0.99,22.92c-5.51-2.19-11.67-3.34-16.9-3.34c-8.58,0-15.57,6.8-15.93,15.29
	c-1.28,1.91-2.03,4.2-2.03,6.66c0,6.6,5.37,11.97,11.97,11.97c2.44,0,4.71-0.74,6.6-2h16.89c1.1,1.22,2.68,2,4.45,2
	c2.96,0,5.42-2.16,5.9-4.99c2.5-2.2,4.08-5.4,4.08-8.98c0-6.53-4.88-11.58-11.39-14.96c3.44-8.54,3.08-18.11-1.05-26.37
	c-1.35-2.71-1.21-5.86,0.38-8.44c1.59-2.58,4.35-4.12,7.38-4.12c4.78,0,8.68,3.89,8.68,8.68v49.2v7.98c0,1.1,0.89,2,2,2h15.97
	c1.1,0,2-0.89,2-2C132.29,128.2,127.81,123.73,122.31,123.73z M70.42,131.71c-4.4,0-7.98-3.58-7.98-7.98c0-4.4,3.58-7.98,7.98-7.98
	c4.4,0,7.98,3.58,7.98,7.98C78.41,128.13,74.83,131.71,70.42,131.71z M104.11,119.73c0.16,0.65,0.25,1.31,0.25,2
	c0,4.4-3.58,7.98-7.98,7.98H80.78c1.02-1.76,1.62-3.81,1.62-5.99c0-6.6-5.37-11.97-11.97-11.97c-1.75,0-3.42,0.39-4.92,1.07
	c1.88-4.15,6.06-7.06,10.91-7.06c1.12,0,2.28,0.06,3.48,0.18l3.32,7.74c1.57,3.67,5.17,6.05,9.17,6.05H104.11z M102.1,115.74h-9.72
	c-2.4,0-4.56-1.42-5.5-3.63l-2.34-5.46C91.52,108.12,98.6,111.3,102.1,115.74z M116.32,131.71v-3.99h5.99c2.6,0,4.82,1.67,5.65,3.99
	H116.32z"/>
</svg>
