<svg id="Layer_7" data-name="Layer 7" xmlns="http://www.w3.org/2000/svg" viewBox="0 0 38.38 31.64"><title>wc</title><path d="M48,17.21H42.3a4.94,4.94,0,0,0-4.82-4.34H22.28a5,5,0,0,0-4.91,4.34H10.84a.61.61,0,0,0-.61.61.62.62,0,0,0,.61.61h6.49V43.9a.61.61,0,0,0,.61.61H33.11a.61.61,0,0,0,.61-.61v-15a.59.59,0,0,0,.42.17h7.59a.61.61,0,0,0,.61-.61v-10H48a.61.61,0,0,0,.61-.61A.61.61,0,0,0,48,17.21Zm-6.93,0h-7.3a3.7,3.7,0,0,1,7.3,0ZM22.28,14.08H34.21a4.94,4.94,0,0,0-1.71,3.74v12.6a1.38,1.38,0,0,0-.54.37,1.17,1.17,0,0,1-.81.42,1.19,1.19,0,0,1-.82-.42,3.92,3.92,0,0,0-5.95,0,1.15,1.15,0,0,1-.81.42,1.19,1.19,0,0,1-.82-.42,4,4,0,0,0-3-1.37,3.65,3.65,0,0,0-1.23.21V17.82A3.74,3.74,0,0,1,22.28,14.08Zm-3.73,19a1.38,1.38,0,0,0,.41-.32,1,1,0,0,1,1.64,0,3.9,3.9,0,0,0,5.94,0,1.19,1.19,0,0,1,.82-.42,1.15,1.15,0,0,1,.81.42,4,4,0,0,0,3,1.37,3.89,3.89,0,0,0,1.35-.25V36a1.49,1.49,0,0,0-.54.37,1.14,1.14,0,0,1-.81.43,1.16,1.16,0,0,1-.82-.43,3.92,3.92,0,0,0-5.95,0,1.12,1.12,0,0,1-.81.43,1.16,1.16,0,0,1-.82-.43,4,4,0,0,0-3-1.37,3.92,3.92,0,0,0-1.23.21V33.09Zm0,10.2V38.71A1.35,1.35,0,0,0,19,38.4a1,1,0,0,1,1.64,0,3.9,3.9,0,0,0,5.94,0,1.19,1.19,0,0,1,.82-.42,1.15,1.15,0,0,1,.81.42,4.07,4.07,0,0,0,3,1.37,3.68,3.68,0,0,0,1.35-.26v3.78ZM41.12,27.85h-7a.59.59,0,0,0-.42.17V18.43h7.4v9.42Z" transform="translate(-10.23 -12.87)"/></svg>